<?xml version="1.0" encoding="UTF-8" standalone="no"?>
<svg
   width="46"
   height="101"
   viewBox="0 0 46 101"
   version="1.1"
   id="svg17"
   sodipodi:docname="2-2-l-phasedia.svg"
   inkscape:version="1.3 (0e150ed, 2023-07-21)"
   xmlns:inkscape="http://www.inkscape.org/namespaces/inkscape"
   xmlns:sodipodi="http://sodipodi.sourceforge.net/DTD/sodipodi-0.dtd"
   xmlns="http://www.w3.org/2000/svg"
   xmlns:svg="http://www.w3.org/2000/svg">
  <sodipodi:namedview
     id="namedview17"
     pagecolor="#ffffff"
     bordercolor="#666666"
     borderopacity="1.0"
     inkscape:showpageshadow="2"
     inkscape:pageopacity="0.0"
     inkscape:pagecheckerboard="0"
     inkscape:deskcolor="#d1d1d1"
     inkscape:zoom="7.7821782"
     inkscape:cx="23.001272"
     inkscape:cy="50.5"
     inkscape:window-width="1680"
     inkscape:window-height="986"
     inkscape:window-x="0"
     inkscape:window-y="27"
     inkscape:window-maximized="1"
     inkscape:current-layer="svg17" />
  <defs
     id="defs6">
    <clipPath
       id="clip-0">
      <path
         clip-rule="nonzero"
         d="M 4 64 L 6 64 L 6 101 L 4 101 Z M 4 64 "
         id="path1" />
    </clipPath>
    <clipPath
       id="clip-1">
      <path
         clip-rule="evenodd"
         d="M 0 0 L 0 101 L 46 101 L 46 0 Z M 1.78125 83.980469 L 1.78125 92.199219 L 8.558594 92.199219 L 8.558594 83.980469 L 5.199219 90.761719 Z M 1.78125 83.980469 "
         id="path2" />
    </clipPath>
    <clipPath
       id="clip-2">
      <path
         clip-rule="nonzero"
         d="M 4 28 L 6 28 L 6 65 L 4 65 Z M 4 28 "
         id="path3" />
    </clipPath>
    <clipPath
       id="clip-3">
      <path
         clip-rule="evenodd"
         d="M 0 0 L 0 101 L 46 101 L 46 0 Z M 8.558594 53.558594 L 8.558594 45.398438 L 1.78125 45.398438 L 1.78125 53.558594 L 5.199219 46.839844 Z M 8.558594 53.558594 "
         id="path4" />
    </clipPath>
    <clipPath
       id="clip-4">
      <path
         clip-rule="nonzero"
         d="M 4 1 L 6 1 L 6 29 L 4 29 Z M 4 1 "
         id="path5" />
    </clipPath>
    <clipPath
       id="clip-5">
      <path
         clip-rule="evenodd"
         d="M 0 0 L 0 101 L 46 101 L 46 0 Z M 1.78125 11.980469 L 1.78125 20.199219 L 8.558594 20.199219 L 8.558594 11.980469 L 5.199219 18.761719 Z M 1.78125 11.980469 "
         id="path6" />
    </clipPath>
  </defs>
  <path
     fill="none"
     stroke-width="4.5"
     stroke-linecap="butt"
     stroke-linejoin="miter"
     stroke="rgb(0%, 0%, 0%)"
     stroke-opacity="1"
     stroke-miterlimit="10"
     d="M 96.992188 321.992188 L 6.992188 321.992188 "
     transform="matrix(0.1, 0, 0, -0.1, 0, 101)"
     id="path7" />
  <path
     fill="none"
     stroke-width="4.5"
     stroke-linecap="butt"
     stroke-linejoin="miter"
     stroke="rgb(0%, 0%, 0%)"
     stroke-opacity="1"
     stroke-miterlimit="10"
     d="M 6.992188 681.992188 L 96.992188 681.992188 "
     transform="matrix(0.1, 0, 0, -0.1, 0, 101)"
     id="path8" />
  <g
     clip-path="url(#clip-0)"
     id="g10">
    <g
       clip-path="url(#clip-1)"
       id="g9">
      <path
         fill="none"
         stroke-width="4.5"
         stroke-linecap="butt"
         stroke-linejoin="miter"
         stroke="rgb(0%, 0%, 0%)"
         stroke-opacity="1"
         stroke-miterlimit="10"
         d="M 51.992188 6.992188 L 51.992188 366.992188 L 51.992188 96.992188 "
         transform="matrix(0.1, 0, 0, -0.1, 0, 101)"
         id="path9" />
    </g>
  </g>
  <path
     fill-rule="evenodd"
     fill="rgb(0%, 0%, 0%)"
     fill-opacity="1"
     d="M 1.78125 83.980469 L 5.199219 90.761719 L 8.558594 83.980469 L 1.78125 83.980469 "
     id="path10" />
  <path
     fill="none"
     stroke-width="4.5"
     stroke-linecap="butt"
     stroke-linejoin="miter"
     stroke="rgb(0%, 0%, 0%)"
     stroke-opacity="1"
     stroke-miterlimit="10"
     d="M 17.8125 170.195312 L 51.992188 102.382812 L 85.585938 170.195312 Z M 17.8125 170.195312 "
     transform="matrix(0.1, 0, 0, -0.1, 0, 101)"
     id="path11" />
  <g
     clip-path="url(#clip-2)"
     id="g13">
    <g
       clip-path="url(#clip-3)"
       id="g12">
      <path
         fill="none"
         stroke-width="4.5"
         stroke-linecap="butt"
         stroke-linejoin="miter"
         stroke="rgb(0%, 0%, 0%)"
         stroke-opacity="1"
         stroke-miterlimit="10"
         d="M 51.992188 726.992188 L 51.992188 366.992188 L 51.992188 546.992188 "
         transform="matrix(0.1, 0, 0, -0.1, 0, 101)"
         id="path12" />
    </g>
  </g>
  <path
     fill-rule="evenodd"
     fill="rgb(0%, 0%, 0%)"
     fill-opacity="1"
     d="M 8.558594 53.558594 L 5.199219 46.839844 L 1.78125 53.558594 L 8.558594 53.558594 "
     id="path13" />
  <path
     fill="none"
     stroke-width="4.5"
     stroke-linecap="butt"
     stroke-linejoin="miter"
     stroke="rgb(0%, 0%, 0%)"
     stroke-opacity="1"
     stroke-miterlimit="10"
     d="M 85.585938 474.414062 L 51.992188 541.601562 L 17.8125 474.414062 Z M 85.585938 474.414062 "
     transform="matrix(0.1, 0, 0, -0.1, 0, 101)"
     id="path14" />
  <g
     clip-path="url(#clip-4)"
     id="g16">
    <g
       clip-path="url(#clip-5)"
       id="g15">
      <path
         fill="none"
         stroke-width="4.5"
         stroke-linecap="butt"
         stroke-linejoin="miter"
         stroke="rgb(0%, 0%, 0%)"
         stroke-opacity="1"
         stroke-miterlimit="10"
         d="M 51.992188 726.992188 L 51.992188 996.992188 L 51.992188 816.992188 "
         transform="matrix(0.1, 0, 0, -0.1, 0, 101)"
         id="path15" />
    </g>
  </g>
  <path
     fill-rule="evenodd"
     fill="rgb(0%, 0%, 0%)"
     fill-opacity="1"
     d="M 1.78125 11.980469 L 5.199219 18.761719 L 8.558594 11.980469 L 1.78125 11.980469 "
     id="path16" />
  <path
     fill="none"
     stroke-width="4.5"
     stroke-linecap="butt"
     stroke-linejoin="miter"
     stroke="rgb(0%, 0%, 0%)"
     stroke-opacity="1"
     stroke-miterlimit="10"
     d="M 17.8125 890.195312 L 51.992188 822.382812 L 85.585938 890.195312 Z M 17.8125 890.195312 "
     transform="matrix(0.1, 0, 0, -0.1, 0, 101)"
     id="path17" />
  <g
     inkscape:label=""
     transform="translate(12.11177,26.372415)"
     id="g20">
    <g
       fill="#000000"
       fill-opacity="1"
       id="g4"
       transform="matrix(1.33333,0,0,1.33333,-3.05317,-2.36183)">
      <g
         id="use3"
         transform="translate(1.993,8.4119997)">
        <path
           d="M 3.328125,-3.015625 C 3.390625,-3.265625 3.625,-4.1875 4.3125,-4.1875 c 0.046875,0 0.296875,0 0.5,0.125 C 4.53125,-4 4.34375,-3.765625 4.34375,-3.515625 c 0,0.15625 0.109375,0.34375 0.375,0.34375 0.21875,0 0.53125,-0.171875 0.53125,-0.578125 0,-0.515625 -0.578125,-0.65625 -0.921875,-0.65625 -0.578125,0 -0.921875,0.53125 -1.046875,0.75 -0.25,-0.65625 -0.78125,-0.75 -1.078125,-0.75 -1.03125,0 -1.609375,1.28125 -1.609375,1.53125 0,0.109375 0.109375,0.109375 0.125,0.109375 0.078125,0 0.109375,-0.03125 0.125,-0.109375 0.34375,-1.0625 1,-1.3125 1.34375,-1.3125 0.1875,0 0.53125,0.09375 0.53125,0.671875 0,0.3125 -0.171875,0.96875 -0.53125,2.375 -0.15625,0.609375 -0.515625,1.03125 -0.953125,1.03125 -0.0625,0 -0.28125,0 -0.5,-0.125 0.25,-0.0625 0.46875,-0.265625 0.46875,-0.546875 0,-0.265625 -0.21875,-0.34375 -0.359375,-0.34375 -0.3125,0 -0.546875,0.25 -0.546875,0.578125 0,0.453125 0.484375,0.65625 0.921875,0.65625 0.671875,0 1.03125,-0.703125 1.046875,-0.75 0.125,0.359375 0.484375,0.75 1.078125,0.75 1.03125,0 1.59375,-1.28125 1.59375,-1.53125 0,-0.109375 -0.078125,-0.109375 -0.109375,-0.109375 -0.09375,0 -0.109375,0.046875 -0.140625,0.109375 -0.328125,1.078125 -1,1.3125 -1.3125,1.3125 -0.390625,0 -0.546875,-0.3125 -0.546875,-0.65625 0,-0.21875 0.046875,-0.4375 0.15625,-0.875 z m 0,0"
           id="path18" />
      </g>
    </g>
    <g
       fill="#000000"
       fill-opacity="1"
       id="g5"
       transform="matrix(1.33333,0,0,1.33333,-3.05317,-2.36183)">
      <g
         id="use4"
         transform="translate(10.454,8.4119997)">
        <path
           d="m 6.84375,-3.265625 c 0.15625,0 0.34375,0 0.34375,-0.1875 C 7.1875,-3.65625 7,-3.65625 6.859375,-3.65625 h -5.96875 c -0.140625,0 -0.328125,0 -0.328125,0.203125 0,0.1875 0.1875,0.1875 0.328125,0.1875 z m 0.015625,1.9375 c 0.140625,0 0.328125,0 0.328125,-0.203125 0,-0.1875 -0.1875,-0.1875 -0.34375,-0.1875 H 0.890625 c -0.140625,0 -0.328125,0 -0.328125,0.1875 0,0.203125 0.1875,0.203125 0.328125,0.203125 z m 0,0"
           id="path19" />
      </g>
    </g>
    <g
       fill="#000000"
       fill-opacity="1"
       id="g6"
       transform="matrix(1.33333,0,0,1.33333,-3.05317,-2.36183)">
      <g
         id="use5"
         transform="translate(20.972513,8.4119997)">
        <path
           d="m 4.46875,-2 c 0,-1.1875 -0.8125,-2.1875 -1.890625,-2.1875 -0.46875,0 -0.90625,0.15625 -1.265625,0.515625 V -5.625 c 0.203125,0.0625 0.53125,0.125 0.84375,0.125 1.234375,0 1.9375,-0.90625 1.9375,-1.03125 0,-0.0625 -0.03125,-0.109375 -0.109375,-0.109375 0,0 -0.03125,0 -0.078125,0.03125 C 3.703125,-6.515625 3.21875,-6.3125 2.546875,-6.3125 2.15625,-6.3125 1.6875,-6.390625 1.21875,-6.59375 1.140625,-6.625 1.125,-6.625 1.109375,-6.625 1,-6.625 1,-6.546875 1,-6.390625 V -3.4375 c 0,0.171875 0,0.25 0.140625,0.25 0.078125,0 0.09375,-0.015625 0.140625,-0.078125 C 1.390625,-3.421875 1.75,-3.96875 2.5625,-3.96875 c 0.515625,0 0.765625,0.453125 0.84375,0.640625 0.15625,0.375 0.1875,0.75 0.1875,1.25 0,0.359375 0,0.953125 -0.25,1.375 C 3.109375,-0.3125 2.734375,-0.0625 2.28125,-0.0625 c -0.71875,0 -1.296875,-0.53125 -1.46875,-1.109375 0.03125,0 0.0625,0.015625 0.171875,0.015625 0.328125,0 0.5,-0.25 0.5,-0.484375 0,-0.25 -0.171875,-0.5 -0.5,-0.5 C 0.84375,-2.140625 0.5,-2.0625 0.5,-1.609375 0.5,-0.75 1.1875,0.21875 2.296875,0.21875 3.453125,0.21875 4.46875,-0.734375 4.46875,-2 Z m 0,0"
           id="path20" />
      </g>
    </g>
  </g>
  <g
     inkscape:label=""
     transform="translate(10.69139,63.144811)"
     id="g27">
    <g
       fill="#000000"
       fill-opacity="1"
       id="g22"
       transform="matrix(1.33333,0,0,1.33333,-3.05317,-2.36183)">
      <g
         id="g21"
         transform="translate(1.993,8.4119997)">
        <path
           d="M 3.328125,-3.015625 C 3.390625,-3.265625 3.625,-4.1875 4.3125,-4.1875 c 0.046875,0 0.296875,0 0.5,0.125 C 4.53125,-4 4.34375,-3.765625 4.34375,-3.515625 c 0,0.15625 0.109375,0.34375 0.375,0.34375 0.21875,0 0.53125,-0.171875 0.53125,-0.578125 0,-0.515625 -0.578125,-0.65625 -0.921875,-0.65625 -0.578125,0 -0.921875,0.53125 -1.046875,0.75 -0.25,-0.65625 -0.78125,-0.75 -1.078125,-0.75 -1.03125,0 -1.609375,1.28125 -1.609375,1.53125 0,0.109375 0.109375,0.109375 0.125,0.109375 0.078125,0 0.109375,-0.03125 0.125,-0.109375 0.34375,-1.0625 1,-1.3125 1.34375,-1.3125 0.1875,0 0.53125,0.09375 0.53125,0.671875 0,0.3125 -0.171875,0.96875 -0.53125,2.375 -0.15625,0.609375 -0.515625,1.03125 -0.953125,1.03125 -0.0625,0 -0.28125,0 -0.5,-0.125 0.25,-0.0625 0.46875,-0.265625 0.46875,-0.546875 0,-0.265625 -0.21875,-0.34375 -0.359375,-0.34375 -0.3125,0 -0.546875,0.25 -0.546875,0.578125 0,0.453125 0.484375,0.65625 0.921875,0.65625 0.671875,0 1.03125,-0.703125 1.046875,-0.75 0.125,0.359375 0.484375,0.75 1.078125,0.75 1.03125,0 1.59375,-1.28125 1.59375,-1.53125 0,-0.109375 -0.078125,-0.109375 -0.109375,-0.109375 -0.09375,0 -0.109375,0.046875 -0.140625,0.109375 -0.328125,1.078125 -1,1.3125 -1.3125,1.3125 -0.390625,0 -0.546875,-0.3125 -0.546875,-0.65625 0,-0.21875 0.046875,-0.4375 0.15625,-0.875 z m 0,0"
           id="path21" />
      </g>
    </g>
    <g
       fill="#000000"
       fill-opacity="1"
       id="g24"
       transform="matrix(1.33333,0,0,1.33333,-3.05317,-2.36183)">
      <g
         id="g23"
         transform="translate(10.454,8.4119997)">
        <path
           d="m 6.84375,-3.265625 c 0.15625,0 0.34375,0 0.34375,-0.1875 C 7.1875,-3.65625 7,-3.65625 6.859375,-3.65625 h -5.96875 c -0.140625,0 -0.328125,0 -0.328125,0.203125 0,0.1875 0.1875,0.1875 0.328125,0.1875 z m 0.015625,1.9375 c 0.140625,0 0.328125,0 0.328125,-0.203125 0,-0.1875 -0.1875,-0.1875 -0.34375,-0.1875 H 0.890625 c -0.140625,0 -0.328125,0 -0.328125,0.1875 0,0.203125 0.1875,0.203125 0.328125,0.203125 z m 0,0"
           id="path22" />
      </g>
    </g>
    <g
       fill="#000000"
       fill-opacity="1"
       id="g26"
       transform="matrix(1.33333,0,0,1.33333,-3.05317,-2.36183)">
      <g
         id="g25"
         transform="translate(20.972513,8.4119997)">
        <path
           d="m 4.578125,-3.1875 c 0,-0.796875 -0.046875,-1.59375 -0.390625,-2.328125 -0.453125,-0.96875 -1.28125,-1.125 -1.6875,-1.125 -0.609375,0 -1.328125,0.265625 -1.75,1.1875 -0.3125,0.6875 -0.359375,1.46875 -0.359375,2.265625 0,0.75 0.03125,1.640625 0.453125,2.40625 0.421875,0.796875 1.15625,1 1.640625,1 0.53125,0 1.296875,-0.203125 1.734375,-1.15625 0.3125,-0.6875 0.359375,-1.46875 0.359375,-2.25 z M 2.484375,0 C 2.09375,0 1.5,-0.25 1.328125,-1.203125 1.21875,-1.796875 1.21875,-2.71875 1.21875,-3.3125 c 0,-0.640625 0,-1.296875 0.078125,-1.828125 0.1875,-1.1875 0.9375,-1.28125 1.1875,-1.28125 0.328125,0 0.984375,0.1875 1.171875,1.171875 0.109375,0.5625 0.109375,1.3125 0.109375,1.9375 0,0.75 0,1.421875 -0.109375,2.0625 C 3.5,-0.296875 2.9375,0 2.484375,0 Z m 0,0"
           id="path24" />
      </g>
    </g>
  </g>
</svg>
