<?xml version="1.0" encoding="UTF-8"?>
<svg xmlns="http://www.w3.org/2000/svg" xmlns:xlink="http://www.w3.org/1999/xlink" width="46" height="101" viewBox="0 0 46 101">
<defs>
<clipPath id="clip-0">
<path clip-rule="nonzero" d="M 4 64 L 6 64 L 6 101 L 4 101 Z M 4 64 "/>
</clipPath>
<clipPath id="clip-1">
<path clip-rule="evenodd" d="M 0 0 L 0 101 L 46 101 L 46 0 Z M 1.78125 83.980469 L 1.78125 92.199219 L 8.558594 92.199219 L 8.558594 83.980469 L 5.199219 90.761719 Z M 1.78125 83.980469 "/>
</clipPath>
<clipPath id="clip-2">
<path clip-rule="nonzero" d="M 4 28 L 6 28 L 6 65 L 4 65 Z M 4 28 "/>
</clipPath>
<clipPath id="clip-3">
<path clip-rule="evenodd" d="M 0 0 L 0 101 L 46 101 L 46 0 Z M 8.558594 53.558594 L 8.558594 45.398438 L 1.78125 45.398438 L 1.78125 53.558594 L 5.199219 46.839844 Z M 8.558594 53.558594 "/>
</clipPath>
<clipPath id="clip-4">
<path clip-rule="nonzero" d="M 4 1 L 6 1 L 6 29 L 4 29 Z M 4 1 "/>
</clipPath>
<clipPath id="clip-5">
<path clip-rule="evenodd" d="M 0 0 L 0 101 L 46 101 L 46 0 Z M 1.78125 11.980469 L 1.78125 20.199219 L 8.558594 20.199219 L 8.558594 11.980469 L 5.199219 18.761719 Z M 1.78125 11.980469 "/>
</clipPath>
</defs>
<path fill="none" stroke-width="4.5" stroke-linecap="butt" stroke-linejoin="miter" stroke="rgb(0%, 0%, 0%)" stroke-opacity="1" stroke-miterlimit="10" d="M 96.992188 321.992188 L 6.992188 321.992188 " transform="matrix(0.1, 0, 0, -0.1, 0, 101)"/>
<path fill="none" stroke-width="4.5" stroke-linecap="butt" stroke-linejoin="miter" stroke="rgb(0%, 0%, 0%)" stroke-opacity="1" stroke-miterlimit="10" d="M 6.992188 681.992188 L 96.992188 681.992188 " transform="matrix(0.1, 0, 0, -0.1, 0, 101)"/>
<g clip-path="url(#clip-0)">
<g clip-path="url(#clip-1)">
<path fill="none" stroke-width="4.5" stroke-linecap="butt" stroke-linejoin="miter" stroke="rgb(0%, 0%, 0%)" stroke-opacity="1" stroke-miterlimit="10" d="M 51.992188 6.992188 L 51.992188 366.992188 L 51.992188 96.992188 " transform="matrix(0.1, 0, 0, -0.1, 0, 101)"/>
</g>
</g>
<path fill-rule="evenodd" fill="rgb(0%, 0%, 0%)" fill-opacity="1" d="M 1.78125 83.980469 L 5.199219 90.761719 L 8.558594 83.980469 L 1.78125 83.980469 "/>
<path fill="none" stroke-width="4.5" stroke-linecap="butt" stroke-linejoin="miter" stroke="rgb(0%, 0%, 0%)" stroke-opacity="1" stroke-miterlimit="10" d="M 17.8125 170.195312 L 51.992188 102.382812 L 85.585938 170.195312 Z M 17.8125 170.195312 " transform="matrix(0.1, 0, 0, -0.1, 0, 101)"/>
<g clip-path="url(#clip-2)">
<g clip-path="url(#clip-3)">
<path fill="none" stroke-width="4.5" stroke-linecap="butt" stroke-linejoin="miter" stroke="rgb(0%, 0%, 0%)" stroke-opacity="1" stroke-miterlimit="10" d="M 51.992188 726.992188 L 51.992188 366.992188 L 51.992188 546.992188 " transform="matrix(0.1, 0, 0, -0.1, 0, 101)"/>
</g>
</g>
<path fill-rule="evenodd" fill="rgb(0%, 0%, 0%)" fill-opacity="1" d="M 8.558594 53.558594 L 5.199219 46.839844 L 1.78125 53.558594 L 8.558594 53.558594 "/>
<path fill="none" stroke-width="4.5" stroke-linecap="butt" stroke-linejoin="miter" stroke="rgb(0%, 0%, 0%)" stroke-opacity="1" stroke-miterlimit="10" d="M 85.585938 474.414062 L 51.992188 541.601562 L 17.8125 474.414062 Z M 85.585938 474.414062 " transform="matrix(0.1, 0, 0, -0.1, 0, 101)"/>
<g clip-path="url(#clip-4)">
<g clip-path="url(#clip-5)">
<path fill="none" stroke-width="4.5" stroke-linecap="butt" stroke-linejoin="miter" stroke="rgb(0%, 0%, 0%)" stroke-opacity="1" stroke-miterlimit="10" d="M 51.992188 726.992188 L 51.992188 996.992188 L 51.992188 816.992188 " transform="matrix(0.1, 0, 0, -0.1, 0, 101)"/>
</g>
</g>
<path fill-rule="evenodd" fill="rgb(0%, 0%, 0%)" fill-opacity="1" d="M 1.78125 11.980469 L 5.199219 18.761719 L 8.558594 11.980469 L 1.78125 11.980469 "/>
<path fill="none" stroke-width="4.5" stroke-linecap="butt" stroke-linejoin="miter" stroke="rgb(0%, 0%, 0%)" stroke-opacity="1" stroke-miterlimit="10" d="M 17.8125 890.195312 L 51.992188 822.382812 L 85.585938 890.195312 Z M 17.8125 890.195312 " transform="matrix(0.1, 0, 0, -0.1, 0, 101)"/>
</svg>
