<?xml version="1.0" encoding="UTF-8"?>
<svg xmlns="http://www.w3.org/2000/svg" xmlns:xlink="http://www.w3.org/1999/xlink" width="288" height="65" viewBox="0 0 288 65">
<defs>
<clipPath id="clip-0">
<path clip-rule="nonzero" d="M 260 36 L 287 36 L 287 37 L 260 37 Z M 260 36 "/>
</clipPath>
<clipPath id="clip-1">
<path clip-rule="evenodd" d="M 0 0 L 0 65 L 288 65 L 288 0 Z M 276.878906 38.519531 L 287.621094 38.519531 L 287.621094 34.140625 L 276.878906 34.140625 L 285.699219 36.359375 Z M 276.878906 38.519531 "/>
</clipPath>
<clipPath id="clip-2">
<path clip-rule="nonzero" d="M 12 0 L 27 0 L 27 65 L 12 65 Z M 12 0 "/>
</clipPath>
<clipPath id="clip-3">
<path clip-rule="evenodd" d="M 0 0 L 0 65 L 288 65 L 288 0 Z M 21.339844 11.28125 L 21.28125 0.601562 L 16.898438 0.660156 L 16.960938 11.339844 L 19.121094 2.582031 Z M 21.339844 11.28125 "/>
</clipPath>
</defs>
<path fill-rule="evenodd" fill="rgb(0%, 0%, 0%)" fill-opacity="1" d="M 150.699219 12.300781 C 150.699219 14.785156 148.683594 16.800781 146.199219 16.800781 C 143.714844 16.800781 141.699219 14.785156 141.699219 12.300781 C 141.699219 9.816406 143.714844 7.800781 146.199219 7.800781 C 148.683594 7.800781 150.699219 9.816406 150.699219 12.300781 "/>
<path fill="none" stroke-width="4.5" stroke-linecap="butt" stroke-linejoin="miter" stroke="rgb(0%, 0%, 0%)" stroke-opacity="1" stroke-miterlimit="10" d="M 1506.992188 526.992188 C 1506.992188 502.148438 1486.835938 481.992188 1461.992188 481.992188 C 1437.148438 481.992188 1416.992188 502.148438 1416.992188 526.992188 C 1416.992188 551.835938 1437.148438 571.992188 1461.992188 571.992188 C 1486.835938 571.992188 1506.992188 551.835938 1506.992188 526.992188 Z M 1506.992188 526.992188 " transform="matrix(0.1, 0, 0, -0.1, 0, 65)"/>
<path fill="none" stroke-width="4.5" stroke-linecap="butt" stroke-linejoin="miter" stroke="rgb(0%, 0%, 0%)" stroke-opacity="1" stroke-miterlimit="10" d="M 196.601562 363.789062 L 196.601562 281.601562 " transform="matrix(0.1, 0, 0, -0.1, 0, 65)"/>
<g clip-path="url(#clip-0)">
<g clip-path="url(#clip-1)">
<path fill="none" stroke-width="4.5" stroke-linecap="butt" stroke-linejoin="miter" stroke="rgb(0%, 0%, 0%)" stroke-opacity="1" stroke-miterlimit="10" d="M 2611.601562 286.40625 L 2867.1875 286.40625 " transform="matrix(0.1, 0, 0, -0.1, 0, 65)"/>
</g>
</g>
<path fill="none" stroke-width="4.5" stroke-linecap="butt" stroke-linejoin="miter" stroke="rgb(0%, 0%, 0%)" stroke-opacity="1" stroke-miterlimit="10" d="M 2768.789062 264.804688 L 2856.992188 286.40625 L 2768.789062 308.59375 " transform="matrix(0.1, 0, 0, -0.1, 0, 65)"/>
<g clip-path="url(#clip-2)">
<g clip-path="url(#clip-3)">
<path fill="none" stroke-width="4.5" stroke-linecap="butt" stroke-linejoin="miter" stroke="rgb(0%, 0%, 0%)" stroke-opacity="1" stroke-miterlimit="10" d="M 191.210938 634.414062 L 196.601562 7.382812 " transform="matrix(0.1, 0, 0, -0.1, 0, 65)"/>
</g>
</g>
<path fill="none" stroke-width="4.5" stroke-linecap="butt" stroke-linejoin="miter" stroke="rgb(0%, 0%, 0%)" stroke-opacity="1" stroke-miterlimit="10" d="M 213.398438 537.1875 L 191.210938 624.179688 L 169.609375 536.601562 " transform="matrix(0.1, 0, 0, -0.1, 0, 65)"/>
<path fill="none" stroke-width="4.5" stroke-linecap="butt" stroke-linejoin="miter" stroke="rgb(0%, 0%, 0%)" stroke-opacity="1" stroke-miterlimit="10" d="M 2610.390625 281.601562 L 2610.390625 363.789062 " transform="matrix(0.1, 0, 0, -0.1, 0, 65)"/>
<path fill-rule="evenodd" fill="rgb(0%, 0%, 0%)" fill-opacity="1" d="M 10.359375 50.761719 L 19.359375 37.261719 L 28.359375 50.761719 "/>
<path fill="none" stroke-width="4.5" stroke-linecap="butt" stroke-linejoin="miter" stroke="rgb(0%, 0%, 0%)" stroke-opacity="1" stroke-miterlimit="10" d="M 103.59375 142.382812 L 193.59375 277.382812 L 283.59375 142.382812 Z M 103.59375 142.382812 " transform="matrix(0.1, 0, 0, -0.1, 0, 65)"/>
<path fill-rule="evenodd" fill="rgb(0%, 0%, 0%)" fill-opacity="1" d="M 251.140625 50.761719 L 260.140625 37.261719 L 269.140625 50.761719 "/>
<path fill="none" stroke-width="4.5" stroke-linecap="butt" stroke-linejoin="miter" stroke="rgb(0%, 0%, 0%)" stroke-opacity="1" stroke-miterlimit="10" d="M 2511.40625 142.382812 L 2601.40625 277.382812 L 2691.40625 142.382812 Z M 2511.40625 142.382812 " transform="matrix(0.1, 0, 0, -0.1, 0, 65)"/>
<path fill="none" stroke-width="4.5" stroke-linecap="butt" stroke-linejoin="miter" stroke="rgb(0%, 0%, 0%)" stroke-opacity="1" stroke-miterlimit="10" d="M 2327.1875 278.007812 L 531.40625 278.007812 " transform="matrix(0.1, 0, 0, -0.1, 0, 65)"/>
<path fill="none" stroke-width="4.5" stroke-linecap="butt" stroke-linejoin="miter" stroke="rgb(0%, 0%, 0%)" stroke-opacity="1" stroke-miterlimit="10" d="M 191.210938 282.1875 L 7.617188 282.1875 " transform="matrix(0.1, 0, 0, -0.1, 0, 65)"/>
<path fill-rule="evenodd" fill="rgb(0%, 0%, 0%)" fill-opacity="1" d="M 137.199219 34.800781 L 146.199219 48.300781 L 155.199219 34.800781 "/>
<path fill="none" stroke-width="4.5" stroke-linecap="butt" stroke-linejoin="miter" stroke="rgb(0%, 0%, 0%)" stroke-opacity="1" stroke-miterlimit="10" d="M 1371.992188 301.992188 L 1461.992188 166.992188 L 1551.992188 301.992188 Z M 1371.992188 301.992188 " transform="matrix(0.1, 0, 0, -0.1, 0, 65)"/>
<path fill-rule="evenodd" fill="rgb(0%, 0%, 0%)" fill-opacity="1" stroke-width="4.5" stroke-linecap="butt" stroke-linejoin="miter" stroke="rgb(0%, 0%, 0%)" stroke-opacity="1" stroke-miterlimit="10" d="M 1371.992188 346.992188 L 1551.992188 346.992188 L 1551.992188 481.992188 L 1371.992188 481.992188 Z M 1371.992188 346.992188 " transform="matrix(0.1, 0, 0, -0.1, 0, 65)"/>
<path fill="none" stroke-width="4.5" stroke-linecap="butt" stroke-linejoin="bevel" stroke="rgb(0%, 0%, 0%)" stroke-opacity="1" stroke-miterlimit="10" d="M 196.601562 363.789062 L 197.1875 363.789062 L 197.8125 363.203125 L 199.609375 362.617188 L 202.617188 361.992188 L 206.796875 360.820312 L 212.1875 358.984375 L 219.414062 357.1875 L 228.398438 354.804688 L 238.59375 351.796875 L 251.210938 348.203125 L 265.585938 343.984375 L 281.210938 339.804688 L 299.179688 335 L 318.398438 329.609375 L 339.414062 324.179688 L 362.1875 318.203125 L 386.210938 311.601562 L 411.40625 305 L 438.398438 298.398438 L 466.015625 291.796875 L 494.179688 284.609375 L 524.179688 277.382812 L 554.179688 270.820312 L 585.390625 263.59375 L 617.1875 256.992188 L 650.195312 249.804688 L 683.203125 243.203125 L 717.382812 236.601562 L 752.1875 230 L 788.203125 223.984375 L 824.804688 217.382812 L 862.617188 211.992188 L 901.015625 206.015625 L 940.585938 200.585938 L 981.40625 195.820312 L 1023.398438 191.015625 L 1067.1875 186.210938 L 1112.1875 181.992188 L 1158.398438 178.398438 L 1206.40625 175.390625 L 1255.585938 172.382812 L 1306.015625 170 L 1357.617188 168.203125 L 1409.804688 167.617188 L 1461.992188 166.992188 L 1516.601562 167.617188 L 1570.585938 168.789062 L 1622.8125 170.585938 L 1673.789062 173.007812 L 1723.59375 176.015625 L 1771.015625 179.609375 L 1816.601562 183.203125 L 1860.390625 188.007812 L 1902.382812 192.8125 L 1942.617188 198.203125 L 1981.601562 203.59375 L 2019.414062 208.984375 L 2055.390625 215 L 2090.195312 221.601562 L 2123.789062 228.203125 L 2156.796875 234.804688 L 2188.59375 241.40625 L 2219.21875 248.59375 L 2249.21875 255.820312 L 2278.59375 263.007812 L 2306.796875 270.195312 L 2334.414062 278.007812 L 2360.78125 285.195312 L 2386.601562 292.382812 L 2410.585938 299.609375 L 2433.984375 306.210938 L 2456.210938 313.398438 L 2477.1875 319.414062 L 2496.992188 326.015625 L 2515 331.40625 L 2531.210938 336.796875 L 2546.210938 341.601562 L 2559.414062 346.40625 L 2570.78125 350 L 2581.015625 353.59375 L 2588.789062 356.601562 L 2596.015625 358.398438 L 2600.78125 360.195312 L 2605 361.992188 L 2607.382812 362.617188 L 2609.21875 363.203125 L 2609.804688 363.789062 L 2610.390625 363.789062 " transform="matrix(0.1, 0, 0, -0.1, 0, 65)"/>
<path fill="none" stroke-width="4.5" stroke-linecap="butt" stroke-linejoin="bevel" stroke="rgb(0%, 0%, 0%)" stroke-opacity="1" stroke-miterlimit="10" d="M 196.601562 281.601562 L 197.1875 281.601562 L 197.8125 281.015625 L 199.609375 280.390625 L 202.617188 279.804688 L 206.796875 278.59375 L 212.1875 276.796875 L 219.414062 275 L 228.398438 271.992188 L 238.59375 268.984375 L 251.210938 265.390625 L 265.585938 261.210938 L 281.210938 256.40625 L 299.179688 251.601562 L 318.398438 246.210938 L 339.414062 240.195312 L 362.1875 234.179688 L 386.210938 227.617188 L 411.40625 220.390625 L 438.398438 213.789062 L 466.015625 206.601562 L 494.179688 199.414062 L 524.179688 192.1875 L 554.179688 185 L 585.390625 177.8125 L 617.1875 170 L 650.195312 163.398438 L 683.203125 156.210938 L 717.382812 148.984375 L 752.1875 142.382812 L 788.203125 135.820312 L 824.804688 129.804688 L 862.617188 123.789062 L 901.015625 117.8125 L 940.585938 111.796875 L 981.40625 106.992188 L 1023.398438 101.601562 L 1067.1875 96.796875 L 1112.1875 92.617188 L 1158.398438 88.984375 L 1206.40625 85.390625 L 1255.585938 82.382812 L 1306.015625 80 L 1357.617188 78.203125 L 1409.804688 77.617188 L 1461.992188 76.992188 L 1516.601562 77.617188 L 1570.585938 78.789062 L 1622.8125 80.585938 L 1673.789062 83.007812 L 1723.59375 86.015625 L 1771.015625 90.195312 L 1816.601562 94.414062 L 1860.390625 98.59375 L 1902.382812 103.984375 L 1942.617188 109.414062 L 1981.601562 114.804688 L 2019.414062 120.820312 L 2055.390625 127.382812 L 2090.195312 133.398438 L 2123.789062 140.585938 L 2156.796875 147.1875 L 2188.59375 154.414062 L 2219.21875 161.601562 L 2249.21875 169.414062 L 2278.59375 176.601562 L 2306.796875 184.414062 L 2334.414062 192.1875 L 2360.78125 199.414062 L 2386.601562 207.1875 L 2410.585938 214.414062 L 2433.984375 222.1875 L 2456.210938 228.789062 L 2477.1875 236.015625 L 2496.992188 241.992188 L 2515 248.007812 L 2531.210938 253.984375 L 2546.210938 258.789062 L 2559.414062 263.59375 L 2570.78125 267.1875 L 2581.015625 270.820312 L 2588.789062 273.789062 L 2596.015625 276.210938 L 2600.78125 278.007812 L 2605 279.804688 L 2607.382812 280.390625 L 2609.21875 281.015625 L 2609.804688 281.601562 L 2610.390625 281.601562 " transform="matrix(0.1, 0, 0, -0.1, 0, 65)"/>
</svg>
