<?xml version="1.0" encoding="UTF-8"?>
<svg xmlns="http://www.w3.org/2000/svg" xmlns:xlink="http://www.w3.org/1999/xlink" width="291" height="59" viewBox="0 0 291 59">
<defs>
<clipPath id="clip-0">
<path clip-rule="nonzero" d="M 0 33 L 290 33 L 290 35 L 0 35 Z M 0 33 "/>
</clipPath>
<clipPath id="clip-1">
<path clip-rule="evenodd" d="M 0 59 L 291 59 L 291 0 L 0 0 Z M 290.121094 33.761719 L 290.121094 34.601562 L 279.921875 36.398438 L 288.679688 34.179688 L 279.921875 31.960938 Z M 290.121094 33.761719 "/>
</clipPath>
<clipPath id="clip-2">
<path clip-rule="nonzero" d="M 22 1 L 24 1 L 24 56 L 22 56 Z M 22 1 "/>
</clipPath>
<clipPath id="clip-3">
<path clip-rule="evenodd" d="M 0 59 L 291 59 L 291 0 L 0 0 Z M 22.398438 0.820312 L 23.238281 0.820312 L 25.039062 11.019531 L 22.820312 2.261719 L 20.601562 11.019531 Z M 22.398438 0.820312 "/>
</clipPath>
<clipPath id="clip-4">
<path clip-rule="nonzero" d="M 243 3 L 278 3 L 278 59 L 243 59 Z M 243 3 "/>
</clipPath>
<clipPath id="clip-5">
<path clip-rule="evenodd" d="M 0 59 L 291 59 L 291 0 L 0 0 Z M 242.960938 40.839844 L 243.738281 40.539062 L 249.019531 50.019531 L 243.800781 42.039062 L 244.640625 51.519531 Z M 242.960938 40.839844 "/>
</clipPath>
</defs>
<g clip-path="url(#clip-0)">
<g clip-path="url(#clip-1)">
<path fill="none" stroke-width="4.5" stroke-linecap="butt" stroke-linejoin="miter" stroke="rgb(0%, 0%, 0%)" stroke-opacity="1" stroke-miterlimit="10" d="M 7.382812 248.203125 L 2896.992188 248.203125 " transform="matrix(0.1, 0, 0, -0.1, 0, 59)"/>
</g>
</g>
<path fill="none" stroke-width="4.5" stroke-linecap="butt" stroke-linejoin="miter" stroke="rgb(0%, 0%, 0%)" stroke-opacity="1" stroke-miterlimit="10" d="M 2799.21875 270.390625 L 2886.796875 248.203125 L 2799.21875 226.015625 " transform="matrix(0.1, 0, 0, -0.1, 0, 59)"/>
<path fill="none" stroke-width="4.5" stroke-linecap="butt" stroke-linejoin="miter" stroke="rgb(0%, 0%, 0%)" stroke-opacity="1" stroke-miterlimit="10" d="M 2638.398438 280.585938 L 2638.398438 220.585938 " transform="matrix(0.1, 0, 0, -0.1, 0, 59)"/>
<g clip-path="url(#clip-2)">
<g clip-path="url(#clip-3)">
<path fill="none" stroke-width="4.5" stroke-linecap="butt" stroke-linejoin="miter" stroke="rgb(0%, 0%, 0%)" stroke-opacity="1" stroke-miterlimit="10" d="M 228.203125 577.617188 L 228.203125 41.796875 " transform="matrix(0.1, 0, 0, -0.1, 0, 59)"/>
</g>
</g>
<path fill="none" stroke-width="4.5" stroke-linecap="butt" stroke-linejoin="miter" stroke="rgb(0%, 0%, 0%)" stroke-opacity="1" stroke-miterlimit="10" d="M 206.015625 479.804688 L 228.203125 567.382812 L 250.390625 479.804688 " transform="matrix(0.1, 0, 0, -0.1, 0, 59)"/>
<g clip-path="url(#clip-4)">
<g clip-path="url(#clip-5)">
<path fill="none" stroke-width="4.5" stroke-linecap="butt" stroke-linejoin="bevel" stroke="rgb(0%, 0%, 0%)" stroke-opacity="1" stroke-miterlimit="10" d="M 2447.617188 423.984375 L 2447.617188 424.609375 L 2453.007812 435.390625 L 2456.601562 444.414062 L 2460.78125 452.1875 L 2463.789062 459.414062 L 2472.8125 475.585938 L 2476.40625 481.015625 L 2480 486.40625 L 2484.21875 491.796875 L 2488.398438 497.1875 L 2492.617188 502.617188 L 2496.796875 507.382812 L 2500.390625 511.601562 L 2504.609375 515.820312 L 2508.789062 519.414062 L 2513.59375 523.59375 L 2518.398438 527.1875 L 2523.203125 531.40625 L 2528.59375 534.414062 L 2532.8125 537.382812 L 2537.617188 540.390625 L 2542.382812 542.8125 L 2547.8125 545.195312 L 2553.203125 547.617188 L 2558.59375 549.414062 L 2564.609375 551.796875 L 2570 553.007812 L 2575.390625 554.179688 L 2580.78125 555.390625 L 2585.585938 556.015625 L 2591.015625 556.601562 L 2602.382812 556.601562 L 2607.8125 556.015625 L 2613.789062 555.390625 L 2618.59375 554.179688 L 2623.984375 553.59375 L 2628.789062 552.382812 L 2633.59375 550.585938 L 2638.984375 548.789062 L 2644.414062 546.40625 L 2649.804688 543.398438 L 2655.195312 541.015625 L 2664.804688 535 L 2674.414062 527.8125 L 2679.21875 523.59375 L 2684.609375 518.789062 L 2694.21875 509.179688 L 2698.398438 504.414062 L 2702.617188 499.609375 L 2706.210938 494.804688 L 2710.390625 489.414062 L 2714.609375 483.398438 L 2718.203125 476.796875 L 2722.382812 470.820312 L 2726.015625 464.179688 L 2729.609375 458.203125 L 2732.617188 452.1875 L 2735.585938 446.210938 L 2738.007812 440.195312 L 2741.015625 433.007812 L 2743.984375 425.820312 L 2746.992188 418.59375 L 2749.414062 411.40625 L 2751.796875 404.804688 L 2753.59375 398.203125 L 2755.390625 392.8125 L 2756.601562 387.382812 L 2757.8125 381.40625 L 2759.609375 374.804688 L 2760.78125 368.789062 L 2763.203125 355.585938 L 2763.789062 348.984375 L 2764.414062 342.382812 L 2765.585938 336.40625 L 2765.585938 329.804688 L 2766.210938 323.203125 L 2766.796875 316.015625 L 2767.382812 308.203125 L 2767.382812 291.992188 L 2768.007812 284.179688 L 2767.382812 276.40625 L 2767.382812 261.992188 L 2766.210938 247.617188 L 2765.585938 240.390625 L 2765 232.617188 L 2763.789062 224.804688 L 2763.203125 216.992188 L 2761.992188 209.804688 L 2760.78125 203.203125 L 2759.609375 196.601562 L 2758.398438 190.585938 L 2757.1875 183.398438 L 2755.390625 176.210938 L 2753.59375 168.984375 L 2751.210938 161.210938 L 2749.414062 153.984375 L 2746.992188 147.382812 L 2744.609375 140.820312 L 2742.1875 134.804688 L 2739.804688 129.414062 L 2737.382812 122.8125 L 2734.414062 116.210938 L 2730.78125 109.609375 L 2727.1875 103.007812 L 2724.21875 96.992188 L 2720.585938 91.015625 L 2716.992188 85.585938 L 2713.398438 80.820312 L 2709.804688 74.804688 L 2705.585938 69.414062 L 2700.78125 63.984375 L 2696.015625 58.59375 L 2691.210938 53.203125 L 2682.8125 44.804688 L 2678.007812 40.585938 L 2673.203125 36.40625 L 2668.398438 32.8125 L 2663.007812 28.59375 L 2656.992188 25 L 2652.1875 21.992188 L 2646.796875 18.984375 L 2641.992188 16.601562 L 2631.210938 13.007812 L 2625.78125 11.210938 L 2619.804688 10 L 2613.789062 8.789062 L 2607.8125 8.203125 L 2602.382812 7.617188 L 2592.1875 7.617188 L 2581.40625 8.789062 L 2575.390625 9.414062 L 2570 10.585938 L 2559.21875 14.179688 L 2554.414062 15.390625 L 2549.609375 17.8125 L 2544.804688 20.195312 L 2540 22.617188 L 2534.609375 25.585938 L 2529.804688 29.179688 L 2525 32.1875 L 2520.78125 35.195312 L 2516.601562 38.203125 L 2509.414062 45.390625 L 2505.195312 48.984375 L 2501.601562 53.203125 L 2498.007812 56.796875 L 2494.414062 61.015625 L 2490.78125 65.195312 L 2487.8125 68.789062 L 2484.804688 73.007812 L 2481.796875 77.1875 L 2478.203125 81.992188 L 2475.195312 86.796875 L 2472.1875 92.1875 L 2468.59375 96.992188 L 2466.210938 101.796875 L 2463.789062 106.015625 L 2461.40625 110.820312 L 2458.984375 115 L 2456.601562 120.390625 L 2454.804688 125.195312 L 2452.382812 130.585938 L 2448.789062 140.195312 L 2446.992188 144.414062 L 2445.195312 149.804688 L 2442.8125 156.40625 L 2435 179.179688 " transform="matrix(0.1, 0, 0, -0.1, 0, 59)"/>
</g>
</g>
<path fill="none" stroke-width="4.5" stroke-linecap="butt" stroke-linejoin="miter" stroke="rgb(0%, 0%, 0%)" stroke-opacity="1" stroke-miterlimit="10" d="M 2446.40625 74.804688 L 2438.007812 169.609375 L 2490.195312 89.804688 " transform="matrix(0.1, 0, 0, -0.1, 0, 59)"/>
<path fill="none" stroke-width="4.5" stroke-linecap="butt" stroke-linejoin="bevel" stroke="rgb(0%, 0%, 0%)" stroke-opacity="1" stroke-miterlimit="10" d="M 226.40625 243.984375 L 227.617188 244.609375 L 230.585938 246.40625 L 236.015625 249.414062 L 244.414062 254.804688 L 256.40625 260.820312 L 270.820312 269.179688 L 288.789062 278.789062 L 309.804688 290.195312 L 331.992188 302.1875 L 356.601562 314.179688 L 381.796875 326.796875 L 407.617188 338.789062 L 433.398438 350.195312 L 458.59375 361.015625 L 483.203125 370 L 506.601562 378.398438 L 529.414062 385.585938 L 551.601562 391.601562 L 572.617188 396.40625 L 592.382812 399.414062 L 612.1875 401.210938 L 631.40625 401.796875 L 650 400.585938 L 668.59375 398.789062 L 686.601562 395.195312 L 705.195312 390.390625 L 723.789062 384.414062 L 739.414062 378.984375 L 755 372.382812 L 771.210938 365.195312 L 804.804688 348.398438 L 821.601562 338.789062 L 839.609375 329.179688 L 857.617188 318.398438 L 875.585938 307.617188 L 894.804688 296.210938 L 913.984375 284.179688 L 933.789062 272.1875 L 954.179688 259.609375 L 974.609375 246.992188 L 995 234.414062 L 1016.015625 221.796875 L 1036.992188 209.179688 L 1058.59375 196.601562 L 1080.195312 184.609375 L 1101.210938 173.203125 L 1122.8125 161.796875 L 1144.414062 151.015625 L 1166.015625 140.820312 L 1186.992188 131.210938 L 1208.007812 122.1875 L 1228.984375 114.414062 L 1250 107.1875 L 1270.390625 100.585938 L 1290.78125 95.195312 L 1310.585938 91.015625 L 1331.015625 87.382812 L 1350.78125 85 L 1370.585938 83.789062 L 1391.015625 83.203125 L 1409.609375 83.789062 L 1428.789062 85.585938 L 1448.007812 88.007812 L 1467.1875 91.601562 L 1486.992188 95.820312 L 1506.796875 100.585938 L 1527.1875 106.601562 L 1547.617188 113.789062 L 1568.59375 121.015625 L 1589.609375 129.414062 L 1611.210938 138.398438 L 1654.414062 157.617188 L 1698.789062 179.179688 L 1720.390625 191.210938 L 1742.617188 202.617188 L 1786.992188 226.601562 L 1808.59375 239.179688 L 1830.195312 251.210938 L 1851.796875 263.203125 L 1872.8125 275.195312 L 1893.789062 287.1875 L 1914.21875 298.59375 L 1934.609375 310 L 1954.414062 320.820312 L 1973.59375 331.015625 L 1992.1875 341.210938 L 2010.78125 350.195312 L 2028.789062 359.179688 L 2046.210938 366.992188 L 2063.59375 374.804688 L 2080.390625 381.40625 L 2096.601562 388.007812 L 2112.8125 393.398438 L 2131.992188 398.789062 L 2151.210938 403.59375 L 2169.804688 406.601562 L 2188.398438 408.984375 L 2206.992188 410.195312 L 2226.210938 410.195312 L 2245.390625 408.984375 L 2265.195312 406.601562 L 2285.585938 402.382812 L 2306.601562 397.617188 L 2328.203125 391.601562 L 2351.015625 384.414062 L 2374.414062 376.601562 L 2398.398438 366.992188 L 2423.007812 356.796875 L 2447.617188 346.015625 L 2472.8125 333.984375 L 2497.382812 322.617188 L 2521.40625 310.585938 L 2543.59375 299.179688 L 2564.609375 287.8125 L 2582.617188 278.203125 L 2598.789062 269.179688 L 2611.992188 261.992188 L 2621.601562 256.601562 L 2628.789062 252.382812 L 2633.59375 250 L 2636.015625 248.203125 L 2637.1875 247.617188 " transform="matrix(0.1, 0, 0, -0.1, 0, 59)"/>
</svg>
