<?xml version="1.0" encoding="UTF-8"?>
<svg xmlns="http://www.w3.org/2000/svg" xmlns:xlink="http://www.w3.org/1999/xlink" width="291" height="83" viewBox="0 0 291 83">
<defs>
<clipPath id="clip-0">
<path clip-rule="nonzero" d="M 143 21 L 145 21 L 145 56 L 143 56 Z M 143 21 "/>
</clipPath>
<clipPath id="clip-1">
<path clip-rule="evenodd" d="M 0 0 L 0 83 L 291 83 L 291 0 Z M 146 31.558594 L 146 20.878906 L 141.621094 20.878906 L 141.621094 31.558594 L 143.839844 22.800781 Z M 146 31.558594 "/>
</clipPath>
<clipPath id="clip-2">
<path clip-rule="nonzero" d="M 0 54 L 290 54 L 290 56 L 0 56 Z M 0 54 "/>
</clipPath>
<clipPath id="clip-3">
<path clip-rule="evenodd" d="M 0 0 L 0 83 L 291 83 L 291 0 Z M 279.859375 56.941406 L 290.601562 56.941406 L 290.601562 52.558594 L 279.859375 52.558594 L 288.679688 54.78125 Z M 279.859375 56.941406 "/>
</clipPath>
<clipPath id="clip-4">
<path clip-rule="nonzero" d="M 16 0 L 30 0 L 30 83 L 16 83 Z M 16 0 "/>
</clipPath>
<clipPath id="clip-5">
<path clip-rule="evenodd" d="M 0 0 L 0 83 L 291 83 L 291 0 Z M 25.160156 11.21875 L 25.160156 0.539062 L 20.78125 0.480469 L 20.71875 11.21875 L 23 2.460938 Z M 25.160156 11.21875 "/>
</clipPath>
<clipPath id="clip-6">
<path clip-rule="nonzero" d="M 243 23 L 278 23 L 278 80 L 243 80 Z M 243 23 "/>
</clipPath>
<clipPath id="clip-7">
<path clip-rule="evenodd" d="M 0 0 L 0 83 L 291 83 L 291 0 Z M 248.960938 70.621094 L 245.359375 60.058594 L 240.980469 61.558594 L 244.578125 72.121094 L 243.800781 62.640625 Z M 248.960938 70.621094 "/>
</clipPath>
</defs>
<g clip-path="url(#clip-0)">
<g clip-path="url(#clip-1)">
<path fill="none" stroke-width="4.5" stroke-linecap="butt" stroke-linejoin="miter" stroke="rgb(0%, 0%, 0%)" stroke-opacity="1" stroke-miterlimit="10" d="M 1438.398438 282.1875 L 1438.398438 612.1875 " transform="matrix(0.1, 0, 0, -0.1, 0, 83)"/>
</g>
</g>
<path fill="none" stroke-width="4.5" stroke-linecap="butt" stroke-linejoin="miter" stroke="rgb(0%, 0%, 0%)" stroke-opacity="1" stroke-miterlimit="10" d="M 1460 514.414062 L 1438.398438 601.992188 L 1416.210938 514.414062 " transform="matrix(0.1, 0, 0, -0.1, 0, 83)"/>
<g clip-path="url(#clip-2)">
<g clip-path="url(#clip-3)">
<path fill="none" stroke-width="4.5" stroke-linecap="butt" stroke-linejoin="miter" stroke="rgb(0%, 0%, 0%)" stroke-opacity="1" stroke-miterlimit="10" d="M 7.382812 282.1875 L 2896.992188 282.1875 " transform="matrix(0.1, 0, 0, -0.1, 0, 83)"/>
</g>
</g>
<path fill="none" stroke-width="4.5" stroke-linecap="butt" stroke-linejoin="miter" stroke="rgb(0%, 0%, 0%)" stroke-opacity="1" stroke-miterlimit="10" d="M 2798.59375 260.585938 L 2886.796875 282.1875 L 2798.59375 304.414062 " transform="matrix(0.1, 0, 0, -0.1, 0, 83)"/>
<g clip-path="url(#clip-4)">
<g clip-path="url(#clip-5)">
<path fill="none" stroke-width="4.5" stroke-linecap="butt" stroke-linejoin="miter" stroke="rgb(0%, 0%, 0%)" stroke-opacity="1" stroke-miterlimit="10" d="M 230 815.585938 L 227.617188 6.796875 " transform="matrix(0.1, 0, 0, -0.1, 0, 83)"/>
</g>
</g>
<path fill="none" stroke-width="4.5" stroke-linecap="butt" stroke-linejoin="miter" stroke="rgb(0%, 0%, 0%)" stroke-opacity="1" stroke-miterlimit="10" d="M 251.601562 717.8125 L 230 805.390625 L 207.1875 717.8125 " transform="matrix(0.1, 0, 0, -0.1, 0, 83)"/>
<path fill="none" stroke-width="4.5" stroke-linecap="butt" stroke-linejoin="miter" stroke="rgb(0%, 0%, 0%)" stroke-opacity="1" stroke-miterlimit="10" d="M 2638.398438 314.609375 L 2638.398438 254.609375 " transform="matrix(0.1, 0, 0, -0.1, 0, 83)"/>
<path fill="none" stroke-width="4.5" stroke-linecap="butt" stroke-linejoin="bevel" stroke="rgb(0%, 0%, 0%)" stroke-opacity="1" stroke-miterlimit="10" d="M 227.617188 282.1875 L 228.203125 282.1875 L 228.789062 282.8125 L 230.585938 283.984375 L 233.59375 285.78125 L 238.398438 287.617188 L 243.789062 290.585938 L 251.015625 294.804688 L 260.585938 299.609375 L 271.40625 305 L 283.984375 311.601562 L 298.398438 318.789062 L 315.195312 327.1875 L 333.203125 336.210938 L 353.007812 345.78125 L 374.609375 356.015625 L 397.382812 367.382812 L 421.40625 378.203125 L 447.1875 390.195312 L 473.59375 402.1875 L 501.796875 414.179688 L 530.585938 426.796875 L 560 438.789062 L 590.585938 451.40625 L 621.796875 463.398438 L 654.21875 475.390625 L 687.1875 487.382812 L 721.40625 498.789062 L 756.210938 510.195312 L 791.601562 521.015625 L 828.789062 531.210938 L 866.601562 541.40625 L 906.210938 551.015625 L 946.992188 560.585938 L 988.984375 568.984375 L 1032.8125 577.382812 L 1077.8125 584.609375 L 1124.609375 591.210938 L 1173.789062 597.1875 L 1223.59375 602.617188 L 1275.78125 606.796875 L 1329.21875 609.804688 L 1383.203125 611.601562 L 1438.398438 612.1875 L 1493.59375 611.601562 L 1547.617188 609.804688 L 1601.015625 606.796875 L 1653.203125 602.617188 L 1703.007812 597.1875 L 1752.1875 591.210938 L 1798.984375 584.609375 L 1843.984375 577.382812 L 1887.8125 568.984375 L 1929.804688 560.585938 L 1970.585938 551.015625 L 2010.195312 541.40625 L 2048.007812 531.210938 L 2085.195312 521.015625 L 2120.585938 510.195312 L 2155.390625 498.789062 L 2189.609375 487.382812 L 2222.617188 475.390625 L 2255 463.398438 L 2286.210938 451.40625 L 2316.796875 438.789062 L 2346.796875 426.796875 L 2375 414.179688 L 2403.203125 402.1875 L 2429.609375 390.195312 L 2455.390625 378.203125 L 2479.414062 367.382812 L 2502.1875 356.015625 L 2523.789062 345.78125 L 2543.59375 336.210938 L 2561.601562 327.1875 L 2578.398438 318.789062 L 2592.8125 311.601562 L 2605.390625 305 L 2616.210938 299.609375 L 2625.78125 294.804688 L 2633.007812 290.585938 L 2638.398438 287.617188 L 2643.203125 285.78125 L 2646.210938 283.984375 L 2648.007812 282.8125 L 2648.59375 282.1875 L 2649.21875 282.1875 " transform="matrix(0.1, 0, 0, -0.1, 0, 83)"/>
<g clip-path="url(#clip-6)">
<g clip-path="url(#clip-7)">
<path fill="none" stroke-width="4.5" stroke-linecap="butt" stroke-linejoin="bevel" stroke="rgb(0%, 0%, 0%)" stroke-opacity="1" stroke-miterlimit="10" d="M 2447.617188 458.007812 L 2447.617188 458.59375 L 2449.414062 462.1875 L 2453.007812 469.414062 L 2456.601562 478.398438 L 2460.78125 486.210938 L 2463.789062 493.398438 L 2469.804688 504.179688 L 2472.8125 509.609375 L 2480 520.390625 L 2484.21875 525.78125 L 2488.398438 531.210938 L 2492.617188 536.601562 L 2496.796875 541.40625 L 2500.390625 545.585938 L 2504.609375 549.804688 L 2508.789062 553.398438 L 2513.59375 557.617188 L 2518.398438 561.210938 L 2523.203125 565.390625 L 2528.59375 568.398438 L 2532.8125 571.40625 L 2537.617188 574.414062 L 2542.382812 576.796875 L 2547.8125 579.179688 L 2553.203125 581.601562 L 2558.59375 583.398438 L 2564.609375 585.78125 L 2580.78125 589.414062 L 2585.585938 590 L 2591.015625 590.585938 L 2602.382812 590.585938 L 2607.8125 590 L 2613.789062 589.414062 L 2618.59375 588.203125 L 2623.984375 587.617188 L 2628.789062 586.40625 L 2633.59375 584.609375 L 2638.984375 582.8125 L 2644.414062 580.390625 L 2649.804688 577.382812 L 2655.195312 575 L 2664.804688 568.984375 L 2674.414062 561.796875 L 2679.21875 557.617188 L 2684.609375 552.8125 L 2694.21875 543.203125 L 2698.398438 538.398438 L 2702.617188 533.59375 L 2706.210938 528.789062 L 2710.390625 523.398438 L 2714.609375 517.382812 L 2718.203125 510.78125 L 2722.382812 504.804688 L 2726.015625 498.203125 L 2729.609375 492.1875 L 2732.617188 486.210938 L 2735.585938 480.195312 L 2738.007812 474.179688 L 2741.015625 466.992188 L 2743.984375 459.804688 L 2746.992188 452.617188 L 2749.414062 445.390625 L 2751.796875 438.789062 L 2753.59375 432.1875 L 2755.390625 426.796875 L 2756.601562 421.40625 L 2757.8125 415.390625 L 2759.609375 408.789062 L 2760.78125 402.8125 L 2763.203125 389.609375 L 2763.789062 383.007812 L 2764.414062 376.40625 L 2765.585938 370.390625 L 2765.585938 363.789062 L 2766.210938 357.1875 L 2766.796875 350 L 2767.382812 342.1875 L 2767.382812 326.015625 L 2768.007812 318.203125 L 2767.382812 310.390625 L 2767.382812 296.015625 L 2766.796875 288.789062 L 2766.210938 281.601562 L 2765.585938 274.414062 L 2765 266.601562 L 2763.789062 258.789062 L 2763.203125 251.015625 L 2761.992188 243.789062 L 2760.78125 237.1875 L 2759.609375 230.585938 L 2758.398438 224.609375 L 2757.1875 217.382812 L 2753.59375 203.007812 L 2751.210938 195.195312 L 2749.414062 188.007812 L 2746.992188 181.40625 L 2744.609375 174.804688 L 2742.1875 168.789062 L 2739.804688 163.398438 L 2737.382812 156.796875 L 2734.414062 150.195312 L 2730.78125 143.59375 L 2727.1875 136.992188 L 2724.21875 131.015625 L 2720.585938 125 L 2716.992188 119.609375 L 2713.398438 114.804688 L 2709.804688 108.789062 L 2705.585938 103.398438 L 2700.78125 98.007812 L 2696.015625 92.617188 L 2691.210938 87.1875 L 2686.992188 83.007812 L 2682.8125 78.789062 L 2678.007812 74.609375 L 2673.203125 70.390625 L 2668.398438 66.796875 L 2663.007812 62.617188 L 2656.992188 58.984375 L 2652.1875 56.015625 L 2646.796875 53.007812 L 2641.992188 50.585938 L 2631.210938 46.992188 L 2625.78125 45.195312 L 2619.804688 43.984375 L 2613.789062 42.8125 L 2607.8125 42.1875 L 2602.382812 41.601562 L 2592.1875 41.601562 L 2586.796875 42.1875 L 2581.40625 42.8125 L 2575.390625 43.398438 L 2570 44.609375 L 2559.21875 48.203125 L 2554.414062 49.414062 L 2544.804688 54.179688 L 2540 56.601562 L 2534.609375 59.609375 L 2529.804688 63.203125 L 2525 66.210938 L 2520.78125 69.179688 L 2516.601562 72.1875 L 2513.007812 75.78125 L 2509.414062 79.414062 L 2505.195312 83.007812 L 2501.601562 87.1875 L 2498.007812 90.78125 L 2494.414062 95 L 2490.78125 99.179688 L 2487.8125 102.8125 L 2484.804688 106.992188 L 2481.796875 111.210938 L 2478.203125 116.015625 L 2475.195312 120.78125 L 2472.1875 126.210938 L 2468.59375 131.015625 L 2466.210938 135.78125 L 2463.789062 140 L 2461.40625 144.804688 L 2458.984375 148.984375 L 2456.601562 154.414062 L 2454.804688 159.179688 L 2452.382812 164.609375 L 2450.585938 169.414062 L 2448.789062 174.179688 L 2446.992188 178.398438 L 2445.195312 183.789062 L 2442.8125 190.390625 L 2435 213.203125 " transform="matrix(0.1, 0, 0, -0.1, 0, 83)"/>
</g>
</g>
<path fill="none" stroke-width="4.5" stroke-linecap="butt" stroke-linejoin="miter" stroke="rgb(0%, 0%, 0%)" stroke-opacity="1" stroke-miterlimit="10" d="M 2489.609375 123.789062 L 2438.007812 203.59375 L 2445.78125 108.789062 " transform="matrix(0.1, 0, 0, -0.1, 0, 83)"/>
</svg>
