<?xml version="1.0" encoding="UTF-8"?>
<svg xmlns="http://www.w3.org/2000/svg" xmlns:xlink="http://www.w3.org/1999/xlink" width="57" height="115" viewBox="0 0 57 115">
<path fill-rule="evenodd" fill="rgb(0%, 0%, 0%)" fill-opacity="1" d="M 54.820312 69.082031 C 54.820312 72.027344 52.429688 74.417969 49.480469 74.417969 C 46.53125 74.417969 44.140625 72.027344 44.140625 69.082031 C 44.140625 66.132812 46.53125 63.738281 49.480469 63.738281 C 52.429688 63.738281 54.820312 66.132812 54.820312 69.082031 "/>
<path fill="none" stroke-width="18" stroke-linecap="butt" stroke-linejoin="miter" stroke="rgb(0%, 0%, 0%)" stroke-opacity="1" stroke-miterlimit="10" d="M 548.203125 459.179688 C 548.203125 429.726562 524.296875 405.820312 494.804688 405.820312 C 465.3125 405.820312 441.40625 429.726562 441.40625 459.179688 C 441.40625 488.671875 465.3125 512.617188 494.804688 512.617188 C 524.296875 512.617188 548.203125 488.671875 548.203125 459.179688 Z M 548.203125 459.179688 " transform="matrix(0.1, 0, 0, -0.1, 0, 115)"/>
<path fill-rule="evenodd" fill="rgb(0%, 0%, 0%)" fill-opacity="1" d="M 37.660156 106.460938 C 37.660156 110.4375 34.4375 113.660156 30.460938 113.660156 C 26.484375 113.660156 23.261719 110.4375 23.261719 106.460938 C 23.261719 102.484375 26.484375 99.261719 30.460938 99.261719 C 34.4375 99.261719 37.660156 102.484375 37.660156 106.460938 "/>
<path fill="none" stroke-width="18" stroke-linecap="butt" stroke-linejoin="miter" stroke="rgb(0%, 0%, 0%)" stroke-opacity="1" stroke-miterlimit="10" d="M 376.601562 85.390625 C 376.601562 45.625 344.375 13.398438 304.609375 13.398438 C 264.84375 13.398438 232.617188 45.625 232.617188 85.390625 C 232.617188 125.15625 264.84375 157.382812 304.609375 157.382812 C 344.375 157.382812 376.601562 125.15625 376.601562 85.390625 Z M 376.601562 85.390625 " transform="matrix(0.1, 0, 0, -0.1, 0, 115)"/>
<path fill="none" stroke-width="18" stroke-linecap="butt" stroke-linejoin="miter" stroke="rgb(0%, 0%, 0%)" stroke-opacity="1" stroke-miterlimit="10" d="M 20.195312 1123.984375 L 494.804688 459.179688 " transform="matrix(0.1, 0, 0, -0.1, 0, 115)"/>
<path fill="none" stroke-width="18" stroke-linecap="butt" stroke-linejoin="miter" stroke="rgb(0%, 0%, 0%)" stroke-opacity="1" stroke-miterlimit="10" d="M 490 473.007812 L 310 68.007812 " transform="matrix(0.1, 0, 0, -0.1, 0, 115)"/>
</svg>
