<?xml version="1.0" encoding="UTF-8"?>
<svg xmlns="http://www.w3.org/2000/svg" xmlns:xlink="http://www.w3.org/1999/xlink" width="182" height="111" viewBox="0 0 182 111">
<defs>
<clipPath id="clip-0">
<path clip-rule="nonzero" d="M 27 1 L 28 1 L 28 110 L 27 110 Z M 27 1 "/>
</clipPath>
<clipPath id="clip-1">
<path clip-rule="evenodd" d="M 0 111 L 182 111 L 182 0 L 0 0 Z M 27.28125 1.179688 L 28.121094 1.179688 L 30.398438 11.441406 L 27.699219 2.441406 L 25 11.441406 Z M 27.28125 1.179688 "/>
</clipPath>
<clipPath id="clip-2">
<path clip-rule="nonzero" d="M 0 95 L 181 95 L 181 97 L 0 97 Z M 0 95 "/>
</clipPath>
<clipPath id="clip-3">
<path clip-rule="evenodd" d="M 0 111 L 182 111 L 182 0 L 0 0 Z M 181.121094 95.679688 L 181.121094 96.519531 L 170.859375 98.800781 L 179.859375 96.101562 L 170.859375 93.398438 Z M 181.121094 95.679688 "/>
</clipPath>
<clipPath id="clip-4">
<path clip-rule="nonzero" d="M 89 81 L 104 81 L 104 93 L 89 93 Z M 89 81 "/>
</clipPath>
<clipPath id="clip-5">
<path clip-rule="evenodd" d="M 0 111 L 182 111 L 182 0 L 0 0 Z M 89.738281 92.621094 L 89.082031 92.199219 L 92.199219 84.101562 L 90.101562 91.238281 L 95.320312 85.898438 Z M 89.738281 92.621094 "/>
</clipPath>
<clipPath id="clip-6">
<path clip-rule="nonzero" d="M 69 98 L 86 98 L 86 106 L 69 106 Z M 69 98 "/>
</clipPath>
<clipPath id="clip-7">
<path clip-rule="evenodd" d="M 0 111 L 182 111 L 182 0 L 0 0 Z M 85.300781 98.082031 L 85.71875 98.738281 L 79 104.320312 L 84.339844 99.101562 L 77.199219 101.199219 Z M 85.300781 98.082031 "/>
</clipPath>
</defs>
<path fill-rule="evenodd" fill="rgb(0%, 0%, 0%)" fill-opacity="1" d="M 92.140625 41.558594 C 92.140625 42.355469 91.496094 43 90.699219 43 C 89.90625 43 89.261719 42.355469 89.261719 41.558594 C 89.261719 40.765625 89.90625 40.121094 90.699219 40.121094 C 91.496094 40.121094 92.140625 40.765625 92.140625 41.558594 "/>
<path fill="none" stroke-width="4.5" stroke-linecap="butt" stroke-linejoin="miter" stroke="rgb(0%, 0%, 0%)" stroke-opacity="1" stroke-miterlimit="10" d="M 921.40625 694.414062 C 921.40625 686.445312 914.960938 680 906.992188 680 C 899.0625 680 892.617188 686.445312 892.617188 694.414062 C 892.617188 702.34375 899.0625 708.789062 906.992188 708.789062 C 914.960938 708.789062 921.40625 702.34375 921.40625 694.414062 Z M 921.40625 694.414062 " transform="matrix(0.1, 0, 0, -0.1, 0, 111)"/>
<path fill-rule="evenodd" fill="rgb(0%, 0%, 0%)" fill-opacity="1" d="M 87.640625 96.101562 C 87.640625 96.894531 86.996094 97.539062 86.199219 97.539062 C 85.40625 97.539062 84.761719 96.894531 84.761719 96.101562 C 84.761719 95.304688 85.40625 94.660156 86.199219 94.660156 C 86.996094 94.660156 87.640625 95.304688 87.640625 96.101562 "/>
<path fill="none" stroke-width="4.5" stroke-linecap="butt" stroke-linejoin="miter" stroke="rgb(0%, 0%, 0%)" stroke-opacity="1" stroke-miterlimit="10" d="M 876.40625 148.984375 C 876.40625 141.054688 869.960938 134.609375 861.992188 134.609375 C 854.0625 134.609375 847.617188 141.054688 847.617188 148.984375 C 847.617188 156.953125 854.0625 163.398438 861.992188 163.398438 C 869.960938 163.398438 876.40625 156.953125 876.40625 148.984375 Z M 876.40625 148.984375 " transform="matrix(0.1, 0, 0, -0.1, 0, 111)"/>
<g clip-path="url(#clip-0)">
<g clip-path="url(#clip-1)">
<path fill="none" stroke-width="4.5" stroke-linecap="butt" stroke-linejoin="miter" stroke="rgb(0%, 0%, 0%)" stroke-opacity="1" stroke-miterlimit="10" d="M 276.992188 13.984375 L 276.992188 1093.984375 " transform="matrix(0.1, 0, 0, -0.1, 0, 111)"/>
</g>
</g>
<path fill="none" stroke-width="4.5" stroke-linecap="butt" stroke-linejoin="miter" stroke="rgb(0%, 0%, 0%)" stroke-opacity="1" stroke-miterlimit="10" d="M 250 995.585938 L 276.992188 1085.585938 L 303.984375 995.585938 " transform="matrix(0.1, 0, 0, -0.1, 0, 111)"/>
<g clip-path="url(#clip-2)">
<g clip-path="url(#clip-3)">
<path fill="none" stroke-width="4.5" stroke-linecap="butt" stroke-linejoin="miter" stroke="rgb(0%, 0%, 0%)" stroke-opacity="1" stroke-miterlimit="10" d="M 6.992188 148.984375 L 1806.992188 148.984375 " transform="matrix(0.1, 0, 0, -0.1, 0, 111)"/>
</g>
</g>
<path fill="none" stroke-width="4.5" stroke-linecap="butt" stroke-linejoin="miter" stroke="rgb(0%, 0%, 0%)" stroke-opacity="1" stroke-miterlimit="10" d="M 1708.59375 176.015625 L 1798.59375 148.984375 L 1708.59375 121.992188 " transform="matrix(0.1, 0, 0, -0.1, 0, 111)"/>
<path fill="none" stroke-width="9" stroke-linecap="butt" stroke-linejoin="bevel" stroke="rgb(0%, 0%, 0%)" stroke-opacity="1" stroke-miterlimit="10" d="M 861.992188 148.984375 L 861.40625 150.195312 L 860.820312 153.789062 L 858.984375 159.179688 L 856.601562 168.203125 L 853.59375 180.820312 L 850 195.820312 L 845.195312 214.414062 L 840.390625 234.804688 L 835.585938 256.992188 L 830.195312 280.390625 L 825.390625 304.414062 L 821.210938 327.8125 L 817.617188 351.210938 L 813.984375 373.984375 L 811.601562 395.585938 L 809.804688 416.015625 L 809.179688 435.820312 L 809.179688 454.414062 L 809.804688 471.796875 L 811.015625 489.179688 L 813.398438 505.390625 L 816.992188 521.601562 L 821.210938 537.1875 L 826.015625 553.398438 L 831.992188 568.984375 L 837.382812 582.1875 L 843.398438 594.804688 L 850 608.007812 L 857.8125 621.796875 L 866.210938 635.585938 L 875.195312 650 L 885.390625 665 L 896.210938 680.585938 L 908.203125 697.382812 L 921.40625 714.179688 L 935.820312 732.1875 L 951.40625 751.40625 L 968.203125 771.210938 L 986.210938 792.1875 L 1004.804688 813.789062 L 1024.609375 836.015625 L 1044.414062 858.789062 L 1065.390625 881.601562 L 1086.40625 904.414062 L 1106.796875 926.601562 L 1126.601562 947.617188 L 1145.195312 968.007812 L 1162.617188 986.015625 L 1177.617188 1002.1875 L 1190.78125 1016.015625 L 1201.015625 1027.382812 L 1209.414062 1035.78125 L 1215.390625 1041.796875 L 1218.984375 1046.015625 L 1220.78125 1047.8125 L 1221.992188 1048.984375 " transform="matrix(0.1, 0, 0, -0.1, 0, 111)"/>
<g clip-path="url(#clip-4)">
<g clip-path="url(#clip-5)">
<path fill="none" stroke-width="4.5" stroke-linecap="butt" stroke-linejoin="bevel" stroke="rgb(0%, 0%, 0%)" stroke-opacity="1" stroke-miterlimit="10" d="M 1032.382812 293.007812 L 1031.796875 293.007812 L 1028.203125 292.382812 L 1020.390625 291.796875 L 1010.195312 290.585938 L 998.203125 288.789062 L 987.382812 286.992188 L 977.8125 284.609375 L 970 281.601562 L 962.8125 278.007812 L 956.796875 273.789062 L 951.40625 269.609375 L 946.015625 264.179688 L 940.585938 258.203125 L 935.195312 250.390625 L 928.59375 240.820312 L 921.40625 230.585938 L 914.179688 218.59375 L 906.992188 207.8125 L 896.210938 189.179688 " transform="matrix(0.1, 0, 0, -0.1, 0, 111)"/>
</g>
</g>
<path fill="none" stroke-width="4.5" stroke-linecap="butt" stroke-linejoin="miter" stroke="rgb(0%, 0%, 0%)" stroke-opacity="1" stroke-miterlimit="10" d="M 953.203125 251.015625 L 901.015625 197.617188 L 921.992188 268.984375 " transform="matrix(0.1, 0, 0, -0.1, 0, 111)"/>
<g clip-path="url(#clip-6)">
<g clip-path="url(#clip-7)">
<path fill="none" stroke-width="4.5" stroke-linecap="butt" stroke-linejoin="bevel" stroke="rgb(0%, 0%, 0%)" stroke-opacity="1" stroke-miterlimit="10" d="M 697.617188 57.1875 L 698.203125 57.1875 L 701.796875 58.398438 L 709.609375 60.820312 L 720.390625 63.789062 L 732.382812 66.796875 L 743.203125 70.390625 L 753.398438 73.398438 L 761.796875 76.40625 L 769.609375 79.414062 L 776.796875 82.382812 L 783.398438 85.390625 L 791.210938 88.984375 L 798.984375 93.203125 L 808.59375 98.59375 L 819.414062 104.609375 L 830.195312 111.210938 L 851.796875 123.789062 " transform="matrix(0.1, 0, 0, -0.1, 0, 111)"/>
</g>
</g>
<path fill="none" stroke-width="4.5" stroke-linecap="butt" stroke-linejoin="miter" stroke="rgb(0%, 0%, 0%)" stroke-opacity="1" stroke-miterlimit="10" d="M 771.992188 98.007812 L 843.398438 118.984375 L 790 66.796875 " transform="matrix(0.1, 0, 0, -0.1, 0, 111)"/>
</svg>
