<?xml version="1.0" encoding="UTF-8"?>
<svg xmlns="http://www.w3.org/2000/svg" xmlns:xlink="http://www.w3.org/1999/xlink" width="171" height="162" viewBox="0 0 171 162">
<defs>
<clipPath id="clip-0">
<path clip-rule="nonzero" d="M 48 90 L 171 90 L 171 92 L 48 92 Z M 48 90 "/>
</clipPath>
<clipPath id="clip-1">
<path clip-rule="evenodd" d="M 0 162 L 171 162 L 171 0 L 0 0 Z M 170.320312 90.679688 L 170.320312 91.519531 L 160.058594 93.800781 L 169.058594 91.101562 L 160.058594 88.398438 Z M 170.320312 90.679688 "/>
</clipPath>
<clipPath id="clip-2">
<path clip-rule="nonzero" d="M 70 0 L 72 0 L 72 114 L 70 114 Z M 70 0 "/>
</clipPath>
<clipPath id="clip-3">
<path clip-rule="evenodd" d="M 0 162 L 171 162 L 171 0 L 0 0 Z M 70.480469 0.679688 L 71.320312 0.679688 L 73.601562 10.941406 L 70.898438 1.941406 L 68.199219 10.941406 Z M 70.480469 0.679688 "/>
</clipPath>
<clipPath id="clip-4">
<path clip-rule="nonzero" d="M 64 84 L 140 84 L 140 133 L 64 133 Z M 64 84 "/>
</clipPath>
<clipPath id="clip-5">
<path clip-rule="evenodd" d="M 0 162 L 171 162 L 171 0 L 0 0 Z M 133.179688 126.378906 L 132.761719 127.039062 L 124.660156 123.980469 L 131.800781 126.019531 L 126.398438 120.859375 Z M 70.359375 91.21875 L 70.78125 90.558594 L 78.878906 93.621094 L 71.738281 91.582031 L 77.140625 96.738281 Z M 70.359375 91.21875 "/>
</clipPath>
</defs>
<path fill="none" stroke-width="4.5" stroke-linecap="butt" stroke-linejoin="miter" stroke="rgb(0%, 0%, 0%)" stroke-opacity="1" stroke-miterlimit="10" d="M 1413.398438 708.984375 C 1413.398438 319.960938 1098.046875 4.609375 708.984375 4.609375 C 319.960938 4.609375 4.609375 319.960938 4.609375 708.984375 C 4.609375 1098.046875 319.960938 1413.398438 708.984375 1413.398438 C 1098.046875 1413.398438 1413.398438 1098.046875 1413.398438 708.984375 Z M 1413.398438 708.984375 " transform="matrix(0.1, 0, 0, -0.1, 0, 162)"/>
<g clip-path="url(#clip-0)">
<g clip-path="url(#clip-1)">
<path fill="none" stroke-width="4.5" stroke-linecap="butt" stroke-linejoin="miter" stroke="rgb(0%, 0%, 0%)" stroke-opacity="1" stroke-miterlimit="10" d="M 483.984375 708.984375 L 1698.984375 708.984375 " transform="matrix(0.1, 0, 0, -0.1, 0, 162)"/>
</g>
</g>
<path fill="none" stroke-width="4.5" stroke-linecap="butt" stroke-linejoin="miter" stroke="rgb(0%, 0%, 0%)" stroke-opacity="1" stroke-miterlimit="10" d="M 1600.585938 736.015625 L 1690.585938 708.984375 L 1600.585938 681.992188 " transform="matrix(0.1, 0, 0, -0.1, 0, 162)"/>
<g clip-path="url(#clip-2)">
<g clip-path="url(#clip-3)">
<path fill="none" stroke-width="4.5" stroke-linecap="butt" stroke-linejoin="miter" stroke="rgb(0%, 0%, 0%)" stroke-opacity="1" stroke-miterlimit="10" d="M 708.984375 483.984375 L 708.984375 1608.984375 " transform="matrix(0.1, 0, 0, -0.1, 0, 162)"/>
</g>
</g>
<path fill="none" stroke-width="4.5" stroke-linecap="butt" stroke-linejoin="miter" stroke="rgb(0%, 0%, 0%)" stroke-opacity="1" stroke-miterlimit="10" d="M 681.992188 1510.585938 L 708.984375 1600.585938 L 736.015625 1510.585938 " transform="matrix(0.1, 0, 0, -0.1, 0, 162)"/>
<g clip-path="url(#clip-4)">
<g clip-path="url(#clip-5)">
<path fill="none" stroke-width="4.5" stroke-linecap="butt" stroke-linejoin="miter" stroke="rgb(0%, 0%, 0%)" stroke-opacity="1" stroke-miterlimit="10" d="M 708.984375 708.984375 L 1326.40625 355 " transform="matrix(0.1, 0, 0, -0.1, 0, 162)"/>
</g>
</g>
<path fill="none" stroke-width="4.5" stroke-linecap="butt" stroke-linejoin="miter" stroke="rgb(0%, 0%, 0%)" stroke-opacity="1" stroke-miterlimit="10" d="M 771.40625 652.617188 L 717.382812 704.179688 L 788.789062 683.789062 " transform="matrix(0.1, 0, 0, -0.1, 0, 162)"/>
<path fill="none" stroke-width="4.5" stroke-linecap="butt" stroke-linejoin="miter" stroke="rgb(0%, 0%, 0%)" stroke-opacity="1" stroke-miterlimit="10" d="M 1263.984375 411.40625 L 1318.007812 359.804688 L 1246.601562 380.195312 " transform="matrix(0.1, 0, 0, -0.1, 0, 162)"/>
</svg>
