<?xml version="1.0" encoding="UTF-8"?>
<svg xmlns="http://www.w3.org/2000/svg" xmlns:xlink="http://www.w3.org/1999/xlink" width="94" height="133" viewBox="0 0 94 133">
<path fill="none" stroke-width="4.5" stroke-linecap="butt" stroke-linejoin="miter" stroke="rgb(0%, 0%, 0%)" stroke-opacity="1" stroke-miterlimit="10" d="M 46.40625 1298.203125 L 181.40625 1298.203125 L 226.40625 1253.203125 L 226.40625 1163.203125 " transform="matrix(0.1, 0, 0, -0.1, 0, 133)"/>
<path fill="none" stroke-width="4.5" stroke-linecap="butt" stroke-linejoin="miter" stroke="rgb(0%, 0%, 0%)" stroke-opacity="1" stroke-miterlimit="10" d="M 46.40625 1208.203125 L 136.40625 1208.203125 L 136.40625 1163.203125 " transform="matrix(0.1, 0, 0, -0.1, 0, 133)"/>
<path fill="none" stroke-width="4.5" stroke-linecap="butt" stroke-linejoin="miter" stroke="rgb(0%, 0%, 0%)" stroke-opacity="1" stroke-miterlimit="10" d="M 153.203125 1167.382812 L 138.203125 1083.398438 " transform="matrix(0.1, 0, 0, -0.1, 0, 133)"/>
<path fill="none" stroke-width="4.5" stroke-linecap="butt" stroke-linejoin="miter" stroke="rgb(0%, 0%, 0%)" stroke-opacity="1" stroke-miterlimit="10" d="M 177.8125 1161.40625 L 180.195312 1083.398438 " transform="matrix(0.1, 0, 0, -0.1, 0, 133)"/>
<path fill="none" stroke-width="4.5" stroke-linecap="butt" stroke-linejoin="miter" stroke="rgb(0%, 0%, 0%)" stroke-opacity="1" stroke-miterlimit="10" d="M 203.007812 1165.585938 L 228.203125 1085.78125 " transform="matrix(0.1, 0, 0, -0.1, 0, 133)"/>
<path fill="none" stroke-width="4.5" stroke-linecap="butt" stroke-linejoin="miter" stroke="rgb(0%, 0%, 0%)" stroke-opacity="1" stroke-miterlimit="10" d="M 7.421875 735.976562 C 15.585938 682.8125 61.328125 643.59375 115.117188 643.59375 C 170.46875 643.59375 217.070312 685.15625 223.359375 740.195312 " transform="matrix(0.1, 0, 0, -0.1, 0, 133)"/>
<path fill="none" stroke-width="4.5" stroke-linecap="butt" stroke-linejoin="miter" stroke="rgb(0%, 0%, 0%)" stroke-opacity="1" stroke-miterlimit="10" d="M 440 737.8125 C 440 737.421875 440 737.03125 440 736.640625 C 440 682.8125 483.632812 639.140625 537.5 639.140625 C 591.09375 639.140625 634.648438 682.421875 635 736.015625 " transform="matrix(0.1, 0, 0, -0.1, 0, 133)"/>
<path fill="none" stroke-width="4.5" stroke-linecap="butt" stroke-linejoin="miter" stroke="rgb(0%, 0%, 0%)" stroke-opacity="1" stroke-miterlimit="10" d="M 7.382812 245.195312 C 102.617188 184.84375 213.007812 152.8125 325.78125 152.8125 C 435.820312 152.8125 543.671875 183.320312 637.421875 241.015625 " transform="matrix(0.1, 0, 0, -0.1, 0, 133)"/>
<path fill="none" stroke-width="4.5" stroke-linecap="butt" stroke-linejoin="miter" stroke="rgb(0%, 0%, 0%)" stroke-opacity="1" stroke-miterlimit="10" d="M 224.609375 738.984375 C 229.21875 683.203125 275.820312 640.3125 331.757812 640.3125 C 387.03125 640.3125 433.28125 682.1875 438.75 737.1875 " transform="matrix(0.1, 0, 0, -0.1, 0, 133)"/>
<path fill="none" stroke-width="4.5" stroke-linecap="butt" stroke-linejoin="miter" stroke="rgb(0%, 0%, 0%)" stroke-opacity="1" stroke-miterlimit="10" d="M 636.210938 1044.414062 C 636.210938 994.6875 495.15625 954.414062 321.210938 954.414062 C 147.226562 954.414062 6.210938 994.6875 6.210938 1044.414062 C 6.210938 1094.101562 147.226562 1134.414062 321.210938 1134.414062 C 495.15625 1134.414062 636.210938 1094.101562 636.210938 1044.414062 Z M 636.210938 1044.414062 " transform="matrix(0.1, 0, 0, -0.1, 0, 133)"/>
<path fill="none" stroke-width="4.5" stroke-linecap="butt" stroke-linejoin="miter" stroke="rgb(0%, 0%, 0%)" stroke-opacity="1" stroke-miterlimit="10" d="M 637.382812 415.585938 L 772.382812 415.585938 L 817.382812 370.585938 L 817.382812 280.585938 " transform="matrix(0.1, 0, 0, -0.1, 0, 133)"/>
<path fill="none" stroke-width="4.5" stroke-linecap="butt" stroke-linejoin="miter" stroke="rgb(0%, 0%, 0%)" stroke-opacity="1" stroke-miterlimit="10" d="M 637.382812 325.585938 L 727.382812 325.585938 L 727.382812 280.585938 " transform="matrix(0.1, 0, 0, -0.1, 0, 133)"/>
<path fill="none" stroke-width="4.5" stroke-linecap="butt" stroke-linejoin="miter" stroke="rgb(0%, 0%, 0%)" stroke-opacity="1" stroke-miterlimit="10" d="M 744.179688 284.804688 L 729.179688 200.820312 " transform="matrix(0.1, 0, 0, -0.1, 0, 133)"/>
<path fill="none" stroke-width="4.5" stroke-linecap="butt" stroke-linejoin="miter" stroke="rgb(0%, 0%, 0%)" stroke-opacity="1" stroke-miterlimit="10" d="M 768.789062 278.789062 L 771.210938 200.820312 " transform="matrix(0.1, 0, 0, -0.1, 0, 133)"/>
<path fill="none" stroke-width="4.5" stroke-linecap="butt" stroke-linejoin="miter" stroke="rgb(0%, 0%, 0%)" stroke-opacity="1" stroke-miterlimit="10" d="M 793.984375 283.007812 L 819.179688 203.203125 " transform="matrix(0.1, 0, 0, -0.1, 0, 133)"/>
<path fill="none" stroke-width="4.5" stroke-linecap="butt" stroke-linejoin="miter" stroke="rgb(0%, 0%, 0%)" stroke-opacity="1" stroke-miterlimit="10" d="M 7.382812 1045.585938 L 7.382812 243.398438 " transform="matrix(0.1, 0, 0, -0.1, 0, 133)"/>
<path fill="none" stroke-width="4.5" stroke-linecap="butt" stroke-linejoin="miter" stroke="rgb(0%, 0%, 0%)" stroke-opacity="1" stroke-miterlimit="10" d="M 637.382812 1045.585938 L 637.382812 239.804688 " transform="matrix(0.1, 0, 0, -0.1, 0, 133)"/>
</svg>
