<?xml version="1.0" encoding="UTF-8"?>
<svg xmlns="http://www.w3.org/2000/svg" xmlns:xlink="http://www.w3.org/1999/xlink" width="102" height="90" viewBox="0 0 102 90">
<path fill="none" stroke-width="4.5" stroke-linecap="butt" stroke-linejoin="miter" stroke="rgb(0%, 0%, 0%)" stroke-opacity="1" stroke-miterlimit="10" d="M 971.796875 237.226562 C 830.9375 123.046875 655.078125 60.742188 473.75 60.742188 C 305.195312 60.742188 141.015625 114.609375 5.195312 214.453125 " transform="matrix(0.1, 0, 0, -0.1, 0, 90)"/>
<path fill="none" stroke-width="4.5" stroke-linecap="butt" stroke-linejoin="miter" stroke="rgb(0%, 0%, 0%)" stroke-opacity="1" stroke-miterlimit="10" d="M 710.234375 545.585938 C 640.820312 496.757812 558.085938 470.351562 473.242188 470 " transform="matrix(0.1, 0, 0, -0.1, 0, 90)"/>
<path fill-rule="evenodd" fill="rgb(0%, 0%, 0%)" fill-opacity="1" d="M 100.121094 68.679688 C 100.121094 71.628906 97.730469 74.019531 94.78125 74.019531 C 91.832031 74.019531 89.441406 71.628906 89.441406 68.679688 C 89.441406 65.730469 91.832031 63.339844 94.78125 63.339844 C 97.730469 63.339844 100.121094 65.730469 100.121094 68.679688 "/>
<path fill="none" stroke-width="18" stroke-linecap="butt" stroke-linejoin="miter" stroke="rgb(0%, 0%, 0%)" stroke-opacity="1" stroke-miterlimit="10" d="M 1001.210938 213.203125 C 1001.210938 183.710938 977.304688 159.804688 947.8125 159.804688 C 918.320312 159.804688 894.414062 183.710938 894.414062 213.203125 C 894.414062 242.695312 918.320312 266.601562 947.8125 266.601562 C 977.304688 266.601562 1001.210938 242.695312 1001.210938 213.203125 Z M 1001.210938 213.203125 " transform="matrix(0.1, 0, 0, -0.1, 0, 90)"/>
<path fill="none" stroke-width="4.5" stroke-linecap="butt" stroke-linejoin="miter" stroke="rgb(0%, 0%, 0%)" stroke-opacity="1" stroke-miterlimit="10" d="M 473.203125 878.007812 L 473.203125 71.015625 " transform="matrix(0.1, 0, 0, -0.1, 0, 90)"/>
<path fill="none" stroke-width="18" stroke-linecap="butt" stroke-linejoin="miter" stroke="rgb(0%, 0%, 0%)" stroke-opacity="1" stroke-miterlimit="10" d="M 473.203125 878.007812 L 947.8125 213.203125 " transform="matrix(0.1, 0, 0, -0.1, 0, 90)"/>
</svg>
