<?xml version="1.0" encoding="UTF-8"?>
<svg xmlns="http://www.w3.org/2000/svg" xmlns:xlink="http://www.w3.org/1999/xlink" width="94" height="55" viewBox="0 0 94 55">
<path fill="none" stroke-width="9" stroke-linecap="butt" stroke-linejoin="miter" stroke="rgb(0%, 0%, 0%)" stroke-opacity="1" stroke-miterlimit="10" d="M 882.421875 186.210938 C 882.539062 186.210938 882.695312 186.210938 882.8125 186.210938 C 904.296875 186.210938 921.679688 168.789062 921.679688 147.304688 C 921.679688 125.859375 904.296875 108.4375 882.8125 108.4375 C 882.695312 108.4375 882.539062 108.4375 882.421875 108.4375 " transform="matrix(0.1, 0, 0, -0.1, 0, 55)"/>
<path fill="none" stroke-width="9" stroke-linecap="butt" stroke-linejoin="miter" stroke="rgb(0%, 0%, 0%)" stroke-opacity="1" stroke-miterlimit="10" d="M 882.382812 417.1875 C 882.382812 417.1875 882.421875 417.1875 882.460938 417.1875 C 904.023438 417.1875 921.523438 399.6875 921.523438 378.125 C 921.523438 356.5625 904.023438 339.0625 882.460938 339.0625 C 882.421875 339.0625 882.382812 339.0625 882.382812 339.0625 " transform="matrix(0.1, 0, 0, -0.1, 0, 55)"/>
<path fill="none" stroke-width="9" stroke-linecap="butt" stroke-linejoin="miter" stroke="rgb(0%, 0%, 0%)" stroke-opacity="1" stroke-miterlimit="10" d="M 882.421875 339.804688 C 882.539062 339.804688 882.695312 339.804688 882.8125 339.804688 C 904.257812 339.804688 921.640625 322.421875 921.640625 300.976562 C 921.640625 279.53125 904.257812 262.148438 882.8125 262.148438 C 882.695312 262.148438 882.539062 262.148438 882.421875 262.148438 " transform="matrix(0.1, 0, 0, -0.1, 0, 55)"/>
<path fill="none" stroke-width="9" stroke-linecap="butt" stroke-linejoin="miter" stroke="rgb(0%, 0%, 0%)" stroke-opacity="1" stroke-miterlimit="10" d="M 882.421875 263.007812 C 882.539062 263.007812 882.695312 263.007812 882.8125 263.007812 C 904.296875 263.007812 921.679688 245.585938 921.679688 224.101562 C 921.679688 202.65625 904.296875 185.234375 882.8125 185.234375 C 882.695312 185.234375 882.539062 185.234375 882.421875 185.234375 " transform="matrix(0.1, 0, 0, -0.1, 0, 55)"/>
<path fill="none" stroke-width="9" stroke-linecap="butt" stroke-linejoin="miter" stroke="rgb(0%, 0%, 0%)" stroke-opacity="1" stroke-miterlimit="10" d="M 180.976562 301.40625 C 180.976562 254.023438 142.578125 215.585938 95.195312 215.585938 C 47.8125 215.585938 9.414062 254.023438 9.414062 301.40625 C 9.414062 348.789062 47.8125 387.1875 95.195312 387.1875 C 142.578125 387.1875 180.976562 348.789062 180.976562 301.40625 Z M 180.976562 301.40625 " transform="matrix(0.1, 0, 0, -0.1, 0, 55)"/>
<path fill="none" stroke-width="4.5" stroke-linecap="butt" stroke-linejoin="miter" stroke="rgb(0%, 0%, 0%)" stroke-opacity="1" stroke-miterlimit="10" d="M 670.585938 51.210938 L 882.382812 51.210938 L 882.382812 109.414062 " transform="matrix(0.1, 0, 0, -0.1, 0, 55)"/>
<path fill="none" stroke-width="4.5" stroke-linecap="butt" stroke-linejoin="miter" stroke="rgb(0%, 0%, 0%)" stroke-opacity="1" stroke-miterlimit="10" d="M 516.992188 493.984375 L 882.382812 493.984375 L 882.382812 417.1875 " transform="matrix(0.1, 0, 0, -0.1, 0, 55)"/>
<path fill="none" stroke-width="9" stroke-linecap="butt" stroke-linejoin="miter" stroke="rgb(0%, 0%, 0%)" stroke-opacity="1" stroke-miterlimit="10" d="M 362.8125 51.210938 L 401.210938 89.609375 L 440.195312 12.8125 L 497.1875 89.609375 L 536.210938 12.8125 L 593.789062 89.609375 L 632.1875 12.8125 L 670.585938 51.210938 " transform="matrix(0.1, 0, 0, -0.1, 0, 55)"/>
<path fill="none" stroke-width="9" stroke-linecap="butt" stroke-linejoin="miter" stroke="rgb(0%, 0%, 0%)" stroke-opacity="1" stroke-miterlimit="10" d="M 478.59375 532.382812 L 478.59375 455.585938 " transform="matrix(0.1, 0, 0, -0.1, 0, 55)"/>
<path fill="none" stroke-width="9" stroke-linecap="butt" stroke-linejoin="miter" stroke="rgb(0%, 0%, 0%)" stroke-opacity="1" stroke-miterlimit="10" d="M 516.992188 532.382812 L 516.992188 455.585938 " transform="matrix(0.1, 0, 0, -0.1, 0, 55)"/>
<path fill="none" stroke-width="4.5" stroke-linecap="butt" stroke-linejoin="miter" stroke="rgb(0%, 0%, 0%)" stroke-opacity="1" stroke-miterlimit="10" d="M 93.398438 385.390625 L 93.398438 493.984375 L 478.59375 493.984375 " transform="matrix(0.1, 0, 0, -0.1, 0, 55)"/>
<path fill="none" stroke-width="4.5" stroke-linecap="butt" stroke-linejoin="miter" stroke="rgb(0%, 0%, 0%)" stroke-opacity="1" stroke-miterlimit="10" d="M 93.398438 216.796875 L 93.398438 51.210938 L 362.8125 51.210938 " transform="matrix(0.1, 0, 0, -0.1, 0, 55)"/>
</svg>
