<?xml version="1.0" encoding="UTF-8"?>
<svg xmlns="http://www.w3.org/2000/svg" xmlns:xlink="http://www.w3.org/1999/xlink" width="290" height="45" viewBox="0 0 290 45">
<path fill-rule="evenodd" fill="rgb(0%, 0%, 0%)" fill-opacity="1" d="M 219.460938 38.121094 C 219.460938 40.507812 217.527344 42.441406 215.140625 42.441406 C 212.753906 42.441406 210.820312 40.507812 210.820312 38.121094 C 210.820312 35.734375 212.753906 33.800781 215.140625 33.800781 C 217.527344 33.800781 219.460938 35.734375 219.460938 38.121094 "/>
<path fill="none" stroke-width="4.5" stroke-linecap="butt" stroke-linejoin="miter" stroke="rgb(0%, 0%, 0%)" stroke-opacity="1" stroke-miterlimit="10" d="M 2194.609375 68.789062 C 2194.609375 44.921875 2175.273438 25.585938 2151.40625 25.585938 C 2127.539062 25.585938 2108.203125 44.921875 2108.203125 68.789062 C 2108.203125 92.65625 2127.539062 111.992188 2151.40625 111.992188 C 2175.273438 111.992188 2194.609375 92.65625 2194.609375 68.789062 Z M 2194.609375 68.789062 " transform="matrix(0.1, 0, 0, -0.1, 0, 45)"/>
<path fill-rule="evenodd" fill="rgb(0%, 0%, 0%)" fill-opacity="1" d="M 244 38.121094 C 244 40.507812 242.066406 42.441406 239.679688 42.441406 C 237.296875 42.441406 235.359375 40.507812 235.359375 38.121094 C 235.359375 35.734375 237.296875 33.800781 239.679688 33.800781 C 242.066406 33.800781 244 35.734375 244 38.121094 "/>
<path fill="none" stroke-width="4.5" stroke-linecap="butt" stroke-linejoin="miter" stroke="rgb(0%, 0%, 0%)" stroke-opacity="1" stroke-miterlimit="10" d="M 2440 68.789062 C 2440 44.921875 2420.664062 25.585938 2396.796875 25.585938 C 2372.96875 25.585938 2353.59375 44.921875 2353.59375 68.789062 C 2353.59375 92.65625 2372.96875 111.992188 2396.796875 111.992188 C 2420.664062 111.992188 2440 92.65625 2440 68.789062 Z M 2440 68.789062 " transform="matrix(0.1, 0, 0, -0.1, 0, 45)"/>
<path fill-rule="evenodd" fill="rgb(0%, 0%, 0%)" fill-opacity="1" d="M 136.78125 38.121094 C 136.78125 40.507812 134.847656 42.441406 132.460938 42.441406 C 130.074219 42.441406 128.140625 40.507812 128.140625 38.121094 C 128.140625 35.734375 130.074219 33.800781 132.460938 33.800781 C 134.847656 33.800781 136.78125 35.734375 136.78125 38.121094 "/>
<path fill="none" stroke-width="4.5" stroke-linecap="butt" stroke-linejoin="miter" stroke="rgb(0%, 0%, 0%)" stroke-opacity="1" stroke-miterlimit="10" d="M 1367.8125 68.789062 C 1367.8125 44.921875 1348.476562 25.585938 1324.609375 25.585938 C 1300.742188 25.585938 1281.40625 44.921875 1281.40625 68.789062 C 1281.40625 92.65625 1300.742188 111.992188 1324.609375 111.992188 C 1348.476562 111.992188 1367.8125 92.65625 1367.8125 68.789062 Z M 1367.8125 68.789062 " transform="matrix(0.1, 0, 0, -0.1, 0, 45)"/>
<path fill-rule="evenodd" fill="rgb(0%, 0%, 0%)" fill-opacity="1" d="M 161.261719 38.121094 C 161.261719 40.507812 159.324219 42.441406 156.941406 42.441406 C 154.554688 42.441406 152.621094 40.507812 152.621094 38.121094 C 152.621094 35.734375 154.554688 33.800781 156.941406 33.800781 C 159.324219 33.800781 161.261719 35.734375 161.261719 38.121094 "/>
<path fill="none" stroke-width="4.5" stroke-linecap="butt" stroke-linejoin="miter" stroke="rgb(0%, 0%, 0%)" stroke-opacity="1" stroke-miterlimit="10" d="M 1612.617188 68.789062 C 1612.617188 44.921875 1593.242188 25.585938 1569.414062 25.585938 C 1545.546875 25.585938 1526.210938 44.921875 1526.210938 68.789062 C 1526.210938 92.65625 1545.546875 111.992188 1569.414062 111.992188 C 1593.242188 111.992188 1612.617188 92.65625 1612.617188 68.789062 Z M 1612.617188 68.789062 " transform="matrix(0.1, 0, 0, -0.1, 0, 45)"/>
<path fill-rule="evenodd" fill="rgb(0%, 0%, 0%)" fill-opacity="1" d="M 54.039062 38.121094 C 54.039062 40.507812 52.105469 42.441406 49.71875 42.441406 C 47.335938 42.441406 45.402344 40.507812 45.402344 38.121094 C 45.402344 35.734375 47.335938 33.800781 49.71875 33.800781 C 52.105469 33.800781 54.039062 35.734375 54.039062 38.121094 "/>
<path fill="none" stroke-width="4.5" stroke-linecap="butt" stroke-linejoin="miter" stroke="rgb(0%, 0%, 0%)" stroke-opacity="1" stroke-miterlimit="10" d="M 540.390625 68.789062 C 540.390625 44.921875 521.054688 25.585938 497.1875 25.585938 C 473.359375 25.585938 454.023438 44.921875 454.023438 68.789062 C 454.023438 92.65625 473.359375 111.992188 497.1875 111.992188 C 521.054688 111.992188 540.390625 92.65625 540.390625 68.789062 Z M 540.390625 68.789062 " transform="matrix(0.1, 0, 0, -0.1, 0, 45)"/>
<path fill-rule="evenodd" fill="rgb(0%, 0%, 0%)" fill-opacity="1" d="M 78.582031 38.121094 C 78.582031 40.507812 76.644531 42.441406 74.261719 42.441406 C 71.875 42.441406 69.941406 40.507812 69.941406 38.121094 C 69.941406 35.734375 71.875 33.800781 74.261719 33.800781 C 76.644531 33.800781 78.582031 35.734375 78.582031 38.121094 "/>
<path fill="none" stroke-width="4.5" stroke-linecap="butt" stroke-linejoin="miter" stroke="rgb(0%, 0%, 0%)" stroke-opacity="1" stroke-miterlimit="10" d="M 785.820312 68.789062 C 785.820312 44.921875 766.445312 25.585938 742.617188 25.585938 C 718.75 25.585938 699.414062 44.921875 699.414062 68.789062 C 699.414062 92.65625 718.75 111.992188 742.617188 111.992188 C 766.445312 111.992188 785.820312 92.65625 785.820312 68.789062 Z M 785.820312 68.789062 " transform="matrix(0.1, 0, 0, -0.1, 0, 45)"/>
<path fill="none" stroke-width="4.5" stroke-linecap="butt" stroke-linejoin="miter" stroke="rgb(0%, 0%, 0%)" stroke-opacity="1" stroke-miterlimit="10" d="M 6.992188 436.015625 L 6.992188 7.617188 L 2886.992188 7.617188 L 2886.992188 436.015625 " transform="matrix(0.1, 0, 0, -0.1, 0, 45)"/>
<path fill="none" stroke-width="4.5" stroke-linecap="butt" stroke-linejoin="miter" stroke="rgb(0%, 0%, 0%)" stroke-opacity="1" stroke-miterlimit="10" d="M 6.992188 160.585938 L 37.617188 160.585938 L 68.203125 252.382812 L 98.789062 99.414062 L 129.414062 252.382812 L 160 99.414062 L 190.585938 252.382812 L 221.210938 99.414062 L 252.382812 252.382812 L 283.007812 99.414062 L 313.59375 252.382812 L 344.21875 99.414062 L 374.804688 191.210938 L 405.390625 191.210938 " transform="matrix(0.1, 0, 0, -0.1, 0, 45)"/>
<path fill="none" stroke-width="4.5" stroke-linecap="butt" stroke-linejoin="miter" stroke="rgb(0%, 0%, 0%)" stroke-opacity="1" stroke-miterlimit="10" d="M 834.414062 160.585938 L 865 160.585938 L 895.585938 252.382812 L 926.210938 99.414062 L 956.796875 252.382812 L 987.382812 99.414062 L 1018.007812 252.382812 L 1048.59375 99.414062 L 1079.21875 252.382812 L 1109.804688 99.414062 L 1140.390625 252.382812 L 1171.015625 99.414062 L 1201.601562 191.210938 L 1232.8125 191.210938 " transform="matrix(0.1, 0, 0, -0.1, 0, 45)"/>
<path fill="none" stroke-width="4.5" stroke-linecap="butt" stroke-linejoin="miter" stroke="rgb(0%, 0%, 0%)" stroke-opacity="1" stroke-miterlimit="10" d="M 1661.210938 160.585938 L 1692.382812 160.585938 L 1723.007812 252.382812 L 1753.59375 99.414062 L 1784.21875 252.382812 L 1814.804688 99.414062 L 1845.390625 252.382812 L 1876.015625 99.414062 L 1906.601562 252.382812 L 1937.1875 99.414062 L 1967.8125 252.382812 L 1998.398438 99.414062 L 2028.984375 191.210938 L 2059.609375 191.210938 " transform="matrix(0.1, 0, 0, -0.1, 0, 45)"/>
<path fill="none" stroke-width="4.5" stroke-linecap="butt" stroke-linejoin="miter" stroke="rgb(0%, 0%, 0%)" stroke-opacity="1" stroke-miterlimit="10" d="M 2488.59375 160.585938 L 2519.21875 160.585938 L 2549.804688 252.382812 L 2580.390625 99.414062 L 2611.015625 252.382812 L 2641.601562 99.414062 L 2672.8125 252.382812 L 2703.398438 99.414062 L 2733.984375 252.382812 L 2764.609375 99.414062 L 2795.195312 252.382812 L 2825.78125 99.414062 L 2856.40625 191.210938 L 2886.992188 191.210938 " transform="matrix(0.1, 0, 0, -0.1, 0, 45)"/>
<path fill="none" stroke-width="4.5" stroke-linecap="butt" stroke-linejoin="miter" stroke="rgb(0%, 0%, 0%)" stroke-opacity="1" stroke-miterlimit="10" d="M 2059.609375 68.789062 L 2488.59375 68.789062 L 2488.59375 344.179688 L 2059.609375 344.179688 Z M 2059.609375 68.789062 " transform="matrix(0.1, 0, 0, -0.1, 0, 45)"/>
<path fill="none" stroke-width="4.5" stroke-linecap="butt" stroke-linejoin="miter" stroke="rgb(0%, 0%, 0%)" stroke-opacity="1" stroke-miterlimit="10" d="M 1232.8125 68.789062 L 1661.210938 68.789062 L 1661.210938 344.179688 L 1232.8125 344.179688 Z M 1232.8125 68.789062 " transform="matrix(0.1, 0, 0, -0.1, 0, 45)"/>
<path fill="none" stroke-width="4.5" stroke-linecap="butt" stroke-linejoin="miter" stroke="rgb(0%, 0%, 0%)" stroke-opacity="1" stroke-miterlimit="10" d="M 405.390625 68.789062 L 834.414062 68.789062 L 834.414062 344.179688 L 405.390625 344.179688 Z M 405.390625 68.789062 " transform="matrix(0.1, 0, 0, -0.1, 0, 45)"/>
</svg>
