<?xml version="1.0" encoding="UTF-8"?>
<svg xmlns="http://www.w3.org/2000/svg" xmlns:xlink="http://www.w3.org/1999/xlink" width="290" height="104" viewBox="0 0 290 104">
<defs>
<clipPath id="clip-0">
<path clip-rule="nonzero" d="M 143 42 L 144 42 L 144 77 L 143 77 Z M 143 42 "/>
</clipPath>
<clipPath id="clip-1">
<path clip-rule="evenodd" d="M 0 104 L 290 104 L 290 0 L 0 0 Z M 142.898438 42.539062 L 143.738281 42.539062 L 145.539062 52.738281 L 143.320312 43.980469 L 141.101562 52.738281 Z M 142.898438 42.539062 "/>
</clipPath>
<clipPath id="clip-2">
<path clip-rule="nonzero" d="M 0 75 L 289 75 L 289 77 L 0 77 Z M 0 75 "/>
</clipPath>
<clipPath id="clip-3">
<path clip-rule="evenodd" d="M 0 104 L 290 104 L 290 0 L 0 0 Z M 289.121094 75.417969 L 289.121094 76.261719 L 278.921875 78.058594 L 287.679688 75.839844 L 278.921875 73.621094 Z M 289.121094 75.417969 "/>
</clipPath>
<clipPath id="clip-4">
<path clip-rule="nonzero" d="M 22 1 L 23 1 L 23 104 L 22 104 Z M 22 1 "/>
</clipPath>
<clipPath id="clip-5">
<path clip-rule="evenodd" d="M 0 104 L 290 104 L 290 0 L 0 0 Z M 22.238281 1.378906 L 23.082031 1.378906 L 24.878906 11.582031 L 22.660156 2.820312 L 20.441406 11.582031 Z M 22.238281 1.378906 "/>
</clipPath>
</defs>
<path fill="none" stroke-width="4.5" stroke-linecap="butt" stroke-linejoin="miter" stroke="rgb(0%, 0%, 0%)" stroke-opacity="1" stroke-miterlimit="10" d="M 226.601562 363.789062 L 226.601562 281.601562 " transform="matrix(0.1, 0, 0, -0.1, 0, 104)"/>
<g clip-path="url(#clip-0)">
<g clip-path="url(#clip-1)">
<path fill="none" stroke-width="4.5" stroke-linecap="butt" stroke-linejoin="miter" stroke="rgb(0%, 0%, 0%)" stroke-opacity="1" stroke-miterlimit="10" d="M 1433.203125 281.601562 L 1433.203125 610.390625 " transform="matrix(0.1, 0, 0, -0.1, 0, 104)"/>
</g>
</g>
<path fill="none" stroke-width="4.5" stroke-linecap="butt" stroke-linejoin="miter" stroke="rgb(0%, 0%, 0%)" stroke-opacity="1" stroke-miterlimit="10" d="M 1411.015625 512.617188 L 1433.203125 600.195312 L 1455.390625 512.617188 " transform="matrix(0.1, 0, 0, -0.1, 0, 104)"/>
<g clip-path="url(#clip-2)">
<g clip-path="url(#clip-3)">
<path fill="none" stroke-width="4.5" stroke-linecap="butt" stroke-linejoin="miter" stroke="rgb(0%, 0%, 0%)" stroke-opacity="1" stroke-miterlimit="10" d="M 6.992188 281.601562 L 2886.992188 281.601562 " transform="matrix(0.1, 0, 0, -0.1, 0, 104)"/>
</g>
</g>
<path fill="none" stroke-width="4.5" stroke-linecap="butt" stroke-linejoin="miter" stroke="rgb(0%, 0%, 0%)" stroke-opacity="1" stroke-miterlimit="10" d="M 2789.21875 303.789062 L 2876.796875 281.601562 L 2789.21875 259.414062 " transform="matrix(0.1, 0, 0, -0.1, 0, 104)"/>
<path fill="none" stroke-width="9" stroke-linecap="round" stroke-linejoin="miter" stroke="rgb(0%, 0%, 0%)" stroke-opacity="1" stroke-miterlimit="10" d="M 2640.390625 281.601562 L 2640.390625 363.789062 " transform="matrix(0.1, 0, 0, -0.1, 0, 104)"/>
<g clip-path="url(#clip-4)">
<g clip-path="url(#clip-5)">
<path fill="none" stroke-width="4.5" stroke-linecap="butt" stroke-linejoin="miter" stroke="rgb(0%, 0%, 0%)" stroke-opacity="1" stroke-miterlimit="10" d="M 226.601562 1021.992188 L 226.601562 7.382812 " transform="matrix(0.1, 0, 0, -0.1, 0, 104)"/>
</g>
</g>
<path fill="none" stroke-width="4.5" stroke-linecap="butt" stroke-linejoin="miter" stroke="rgb(0%, 0%, 0%)" stroke-opacity="1" stroke-miterlimit="10" d="M 204.414062 924.179688 L 226.601562 1011.796875 L 248.789062 924.179688 " transform="matrix(0.1, 0, 0, -0.1, 0, 104)"/>
<path fill="none" stroke-width="9" stroke-linecap="round" stroke-linejoin="miter" stroke="rgb(0%, 0%, 0%)" stroke-opacity="1" stroke-miterlimit="10" d="M 226.601562 363.789062 L 226.601562 281.601562 " transform="matrix(0.1, 0, 0, -0.1, 0, 104)"/>
<path fill="none" stroke-width="9" stroke-linecap="butt" stroke-linejoin="bevel" stroke="rgb(0%, 0%, 0%)" stroke-opacity="1" stroke-miterlimit="10" d="M 226.601562 281.601562 L 227.1875 281.601562 L 227.8125 282.1875 L 229.609375 283.398438 L 232.617188 285.195312 L 236.796875 286.992188 L 242.8125 290 L 250 294.179688 L 258.984375 298.984375 L 269.804688 304.414062 L 297.382812 318.203125 L 313.59375 326.601562 L 331.601562 335.585938 L 351.40625 345.195312 L 373.007812 355.390625 L 395.820312 366.210938 L 419.804688 377.617188 L 445 388.984375 L 471.992188 401.015625 L 499.609375 413.007812 L 528.398438 425.585938 L 557.8125 437.617188 L 588.398438 450.195312 L 619.609375 462.1875 L 651.40625 474.179688 L 684.414062 485.585938 L 718.59375 496.992188 L 753.398438 508.398438 L 788.789062 519.179688 L 825.390625 530 L 863.789062 540.195312 L 902.8125 549.804688 L 943.007812 558.789062 L 985 567.1875 L 1028.789062 575.585938 L 1073.789062 582.8125 L 1120.585938 589.414062 L 1169.21875 595.390625 L 1219.609375 600.820312 L 1271.210938 605 L 1323.984375 608.007812 L 1378.59375 609.804688 L 1433.203125 610.390625 L 1487.8125 609.804688 L 1542.382812 608.007812 L 1595.195312 605 L 1646.796875 600.820312 L 1697.1875 595.390625 L 1745.78125 589.414062 L 1792.617188 582.8125 L 1837.617188 575.585938 L 1881.40625 567.1875 L 1923.398438 558.789062 L 1963.59375 549.804688 L 2003.203125 540.195312 L 2041.015625 530 L 2077.617188 519.179688 L 2113.59375 508.398438 L 2148.398438 496.992188 L 2181.992188 485.585938 L 2215 474.179688 L 2247.382812 462.1875 L 2278.59375 450.195312 L 2309.21875 437.617188 L 2338.59375 425.585938 L 2367.382812 413.007812 L 2395 401.015625 L 2421.40625 388.984375 L 2447.1875 377.617188 L 2471.210938 366.210938 L 2493.984375 355.390625 L 2515.585938 345.195312 L 2535.390625 335.585938 L 2553.398438 326.601562 L 2569.609375 318.203125 L 2583.984375 311.015625 L 2596.601562 304.414062 L 2608.007812 298.984375 L 2616.992188 294.179688 L 2624.21875 290 L 2630.195312 286.992188 L 2634.414062 285.195312 L 2637.382812 283.398438 L 2639.21875 282.1875 L 2639.804688 281.601562 L 2640.390625 281.601562 " transform="matrix(0.1, 0, 0, -0.1, 0, 104)"/>
<path fill="none" stroke-width="9" stroke-linecap="butt" stroke-linejoin="bevel" stroke="rgb(0%, 0%, 0%)" stroke-opacity="1" stroke-miterlimit="10" d="M 226.601562 363.789062 L 227.1875 363.789062 L 227.8125 364.414062 L 229.609375 365.585938 L 232.617188 367.382812 L 236.796875 369.179688 L 242.8125 372.1875 L 250 376.40625 L 258.984375 381.210938 L 269.804688 386.601562 L 297.382812 400.390625 L 313.59375 408.789062 L 331.601562 417.8125 L 351.40625 427.382812 L 373.007812 437.617188 L 395.820312 448.398438 L 419.804688 459.804688 L 445 471.796875 L 471.992188 483.789062 L 499.609375 495.820312 L 528.398438 507.8125 L 557.8125 520.390625 L 588.398438 532.382812 L 619.609375 544.414062 L 651.40625 556.40625 L 684.414062 568.398438 L 718.59375 579.804688 L 753.398438 591.210938 L 788.789062 601.992188 L 825.390625 612.8125 L 863.789062 622.382812 L 902.8125 631.992188 L 943.007812 641.601562 L 985 650 L 1028.789062 658.398438 L 1073.789062 665.585938 L 1120.585938 672.1875 L 1169.21875 678.203125 L 1219.609375 683.59375 L 1271.210938 687.8125 L 1323.984375 690.820312 L 1378.59375 692.617188 L 1433.203125 693.203125 L 1487.8125 692.617188 L 1542.382812 690.820312 L 1595.195312 687.8125 L 1646.796875 683.59375 L 1697.1875 678.203125 L 1745.78125 672.1875 L 1792.617188 665.585938 L 1837.617188 658.398438 L 1881.40625 650 L 1923.398438 641.601562 L 1963.59375 631.992188 L 2003.203125 622.382812 L 2041.015625 612.8125 L 2077.617188 601.992188 L 2113.59375 591.210938 L 2148.398438 579.804688 L 2181.992188 568.398438 L 2215 556.40625 L 2247.382812 544.414062 L 2278.59375 532.382812 L 2309.21875 520.390625 L 2338.59375 507.8125 L 2367.382812 495.820312 L 2395 483.789062 L 2421.40625 471.796875 L 2447.1875 459.804688 L 2471.210938 448.398438 L 2493.984375 437.617188 L 2515.585938 427.382812 L 2535.390625 417.8125 L 2553.398438 408.789062 L 2569.609375 400.390625 L 2583.984375 393.203125 L 2596.601562 386.601562 L 2608.007812 381.210938 L 2616.992188 376.40625 L 2624.21875 372.1875 L 2630.195312 369.179688 L 2634.414062 367.382812 L 2637.382812 365.585938 L 2639.21875 364.414062 L 2639.804688 363.789062 L 2640.390625 363.789062 " transform="matrix(0.1, 0, 0, -0.1, 0, 104)"/>
</svg>
