<?xml version="1.0" encoding="UTF-8"?>
<svg xmlns="http://www.w3.org/2000/svg" xmlns:xlink="http://www.w3.org/1999/xlink" width="182" height="45" viewBox="0 0 182 45">
<path fill-rule="evenodd" fill="rgb(0%, 0%, 0%)" fill-opacity="1" d="M 138.519531 38.0625 C 138.519531 40.480469 136.558594 42.441406 134.140625 42.441406 C 131.722656 42.441406 129.761719 40.480469 129.761719 38.0625 C 129.761719 35.640625 131.722656 33.679688 134.140625 33.679688 C 136.558594 33.679688 138.519531 35.640625 138.519531 38.0625 "/>
<path fill="none" stroke-width="4.5" stroke-linecap="butt" stroke-linejoin="miter" stroke="rgb(0%, 0%, 0%)" stroke-opacity="1" stroke-miterlimit="10" d="M 1385.195312 69.375 C 1385.195312 45.195312 1365.585938 25.585938 1341.40625 25.585938 C 1317.226562 25.585938 1297.617188 45.195312 1297.617188 69.375 C 1297.617188 93.59375 1317.226562 113.203125 1341.40625 113.203125 C 1365.585938 113.203125 1385.195312 93.59375 1385.195312 69.375 Z M 1385.195312 69.375 " transform="matrix(0.1, 0, 0, -0.1, 0, 45)"/>
<path fill-rule="evenodd" fill="rgb(0%, 0%, 0%)" fill-opacity="1" d="M 163.359375 38.0625 C 163.359375 40.480469 161.398438 42.441406 158.980469 42.441406 C 156.5625 42.441406 154.601562 40.480469 154.601562 38.0625 C 154.601562 35.640625 156.5625 33.679688 158.980469 33.679688 C 161.398438 33.679688 163.359375 35.640625 163.359375 38.0625 "/>
<path fill="none" stroke-width="4.5" stroke-linecap="butt" stroke-linejoin="miter" stroke="rgb(0%, 0%, 0%)" stroke-opacity="1" stroke-miterlimit="10" d="M 1633.59375 69.375 C 1633.59375 45.195312 1613.984375 25.585938 1589.804688 25.585938 C 1565.625 25.585938 1546.015625 45.195312 1546.015625 69.375 C 1546.015625 93.59375 1565.625 113.203125 1589.804688 113.203125 C 1613.984375 113.203125 1633.59375 93.59375 1633.59375 69.375 Z M 1633.59375 69.375 " transform="matrix(0.1, 0, 0, -0.1, 0, 45)"/>
<path fill-rule="evenodd" fill="rgb(0%, 0%, 0%)" fill-opacity="1" d="M 54.761719 38.0625 C 54.761719 40.480469 52.796875 42.441406 50.378906 42.441406 C 47.960938 42.441406 46 40.480469 46 38.0625 C 46 35.640625 47.960938 33.679688 50.378906 33.679688 C 52.796875 33.679688 54.761719 35.640625 54.761719 38.0625 "/>
<path fill="none" stroke-width="4.5" stroke-linecap="butt" stroke-linejoin="miter" stroke="rgb(0%, 0%, 0%)" stroke-opacity="1" stroke-miterlimit="10" d="M 547.617188 69.375 C 547.617188 45.195312 527.96875 25.585938 503.789062 25.585938 C 479.609375 25.585938 460 45.195312 460 69.375 C 460 93.59375 479.609375 113.203125 503.789062 113.203125 C 527.96875 113.203125 547.617188 93.59375 547.617188 69.375 Z M 547.617188 69.375 " transform="matrix(0.1, 0, 0, -0.1, 0, 45)"/>
<path fill-rule="evenodd" fill="rgb(0%, 0%, 0%)" fill-opacity="1" d="M 79.539062 38.0625 C 79.539062 40.480469 77.578125 42.441406 75.160156 42.441406 C 72.742188 42.441406 70.78125 40.480469 70.78125 38.0625 C 70.78125 35.640625 72.742188 33.679688 75.160156 33.679688 C 77.578125 33.679688 79.539062 35.640625 79.539062 38.0625 "/>
<path fill="none" stroke-width="4.5" stroke-linecap="butt" stroke-linejoin="miter" stroke="rgb(0%, 0%, 0%)" stroke-opacity="1" stroke-miterlimit="10" d="M 795.390625 69.375 C 795.390625 45.195312 775.78125 25.585938 751.601562 25.585938 C 727.421875 25.585938 707.8125 45.195312 707.8125 69.375 C 707.8125 93.59375 727.421875 113.203125 751.601562 113.203125 C 775.78125 113.203125 795.390625 93.59375 795.390625 69.375 Z M 795.390625 69.375 " transform="matrix(0.1, 0, 0, -0.1, 0, 45)"/>
<path fill="none" stroke-width="4.5" stroke-linecap="butt" stroke-linejoin="miter" stroke="rgb(0%, 0%, 0%)" stroke-opacity="1" stroke-miterlimit="10" d="M 6.992188 441.992188 L 6.992188 7.617188 L 1806.992188 7.617188 " transform="matrix(0.1, 0, 0, -0.1, 0, 45)"/>
<path fill="none" stroke-width="4.5" stroke-linecap="butt" stroke-linejoin="miter" stroke="rgb(0%, 0%, 0%)" stroke-opacity="1" stroke-miterlimit="10" d="M 6.992188 163.007812 L 38.203125 163.007812 L 68.789062 256.015625 L 100 100.585938 L 131.210938 256.015625 L 162.382812 100.585938 L 193.007812 256.015625 L 224.21875 100.585938 L 255.390625 256.015625 L 286.601562 100.585938 L 317.1875 256.015625 L 348.398438 100.585938 L 379.609375 193.59375 L 410.195312 193.59375 " transform="matrix(0.1, 0, 0, -0.1, 0, 45)"/>
<path fill="none" stroke-width="4.5" stroke-linecap="butt" stroke-linejoin="miter" stroke="rgb(0%, 0%, 0%)" stroke-opacity="1" stroke-miterlimit="10" d="M 845.195312 163.007812 L 875.820312 163.007812 L 906.992188 256.015625 L 938.203125 100.585938 L 968.789062 256.015625 L 1000 100.585938 L 1031.210938 256.015625 L 1062.382812 100.585938 L 1093.007812 256.015625 L 1124.21875 100.585938 L 1155.390625 256.015625 L 1186.601562 100.585938 L 1217.1875 193.59375 L 1248.398438 193.59375 " transform="matrix(0.1, 0, 0, -0.1, 0, 45)"/>
<path fill="none" stroke-width="4.5" stroke-linecap="butt" stroke-linejoin="miter" stroke="rgb(0%, 0%, 0%)" stroke-opacity="1" stroke-miterlimit="10" d="M 1248.398438 69.414062 L 1682.8125 69.414062 L 1682.8125 348.984375 L 1248.398438 348.984375 Z M 1248.398438 69.414062 " transform="matrix(0.1, 0, 0, -0.1, 0, 45)"/>
<path fill="none" stroke-width="4.5" stroke-linecap="butt" stroke-linejoin="miter" stroke="rgb(0%, 0%, 0%)" stroke-opacity="1" stroke-miterlimit="10" d="M 410.195312 69.414062 L 845.195312 69.414062 L 845.195312 348.984375 L 410.195312 348.984375 Z M 410.195312 69.414062 " transform="matrix(0.1, 0, 0, -0.1, 0, 45)"/>
</svg>
